<svg width="24" height="25" viewBox="0 0 24 25" fill="none" xmlns="http://www.w3.org/2000/svg">
<path d="M21 12.5V8.5C21 6.29086 19.2091 4.5 17 4.5H7C4.79086 4.5 3 6.29086 3 8.5V17.5C3 19.7091 4.79086 21.5 7 21.5H12" stroke="#101010" stroke-width="1.75" stroke-linecap="round"/>
<path d="M8 3.5V6.5" stroke="#101010" stroke-width="2" stroke-linecap="round"/>
<path d="M17 10.5H7" stroke="#101010" stroke-width="1.75" stroke-linecap="round"/>
<path d="M16 3.5V6.5" stroke="#101010" stroke-width="2" stroke-linecap="round"/>
<path d="M21 18.5C21 20.1569 19.6569 21.5 18 21.5C16.3431 21.5 15 20.1569 15 18.5C15 16.8431 16.3431 15.5 18 15.5C19.6569 15.5 21 16.8431 21 18.5Z" stroke="#101010" stroke-width="1.75"/>
</svg>
