<svg width="16" height="12" viewBox="0 0 16 12" fill="none" xmlns="http://www.w3.org/2000/svg">
<path d="M1 4.98421C0.782996 4.98443 0.571818 4.91164 0.398406 4.77684C0.224994 4.64204 0.09878 4.45256 0.0388502 4.23706C-0.0210795 4.02156 -0.0114653 3.79176 0.066239 3.5824C0.143943 3.37305 0.285511 3.19553 0.469535 3.0767L3.15485 0.30213C3.24767 0.206295 3.35784 0.130288 3.47909 0.0784491C3.60034 0.0266093 3.73028 -4.59394e-05 3.8615 1.73856e-06C3.99271 5.03702e-05 4.12264 0.0268009 4.24385 0.0787285C4.36506 0.130656 4.47518 0.206743 4.56794 0.302645C4.66069 0.398548 4.73425 0.512387 4.78442 0.637664C4.83459 0.76294 4.86039 0.8972 4.86035 1.03278C4.8603 1.16836 4.83441 1.3026 4.78415 1.42784C4.73389 1.55308 4.66025 1.66687 4.56744 1.7627L3.44756 2.91877L10.99 2.91877C11.255 2.91877 11.5091 3.02752 11.6964 3.22109C11.8838 3.41467 11.989 3.67722 11.989 3.95097C11.989 4.22473 11.8838 4.48728 11.6964 4.68085C11.5091 4.87443 11.255 4.98318 10.99 4.98318L1 4.98318L1 4.98421Z" fill="#2C2C2C"/>
<path d="M15 7.01579C15.217 7.01557 15.4282 7.08836 15.6016 7.22316C15.775 7.35796 15.9012 7.54744 15.9611 7.76294C16.0211 7.97844 16.0115 8.20824 15.9338 8.4176C15.8561 8.62695 15.7145 8.80447 15.5305 8.9233L12.8451 11.6979C12.6577 11.8914 12.4035 12.0001 12.1385 12C11.8735 11.9999 11.6194 11.891 11.4321 11.6974C11.2447 11.5037 11.1396 11.241 11.1397 10.9672C11.1397 10.6934 11.2451 10.4308 11.4326 10.2373L12.5524 9.08123L5.00998 9.08123C4.74503 9.08123 4.49093 8.97248 4.30358 8.77891C4.11624 8.58533 4.01098 8.32279 4.01098 8.04903C4.01098 7.77527 4.11624 7.51273 4.30358 7.31915C4.49093 7.12557 4.74503 7.01682 5.00998 7.01682L15 7.01682L15 7.01579Z" fill="#2C2C2C"/>
</svg>
