<svg width="24" height="24" viewBox="0 0 24 24" fill="none" xmlns="http://www.w3.org/2000/svg">
<path d="M12 0C6.75998 0 2.31998 3.36 0.67998 8H23.32C21.68 3.36 17.24 0 12 0Z" fill="#2B92DE"/>
<path d="M12 24C17.24 24 21.68 20.68 23.32 16H0.67998C2.31998 20.68 6.75998 24 12 24Z" fill="#4D9B08"/>
<path d="M0.67998 8C0.23998 9.24 0 10.6 0 12C0 13.4 0.23998 14.76 0.67998 16H23.32C23.76 14.76 24 13.4 24 12C24 10.6 23.76 9.24 23.32 8H0.67998Z" fill="#ED4C5C"/>
<path d="M11.863 14.05C10.7424 14.05 9.82101 13.125 9.82101 12C9.82101 10.875 10.7424 9.95 11.863 9.95C12.137 9.95 12.386 10 12.6101 10.1C12.2117 9.8 11.7136 9.6 11.1658 9.6C9.84591 9.6 8.8 10.675 8.8 12C8.8 13.325 9.87082 14.4 11.1658 14.4C11.7136 14.4 12.2117 14.225 12.6101 13.9C12.386 14 12.137 14.05 11.863 14.05ZM14.0545 12.35L13.5066 12.725L13.8553 12.15L13.2078 12L13.8553 11.85L13.4817 11.3L14.0545 11.65L14.2039 11L14.3533 11.65L14.9012 11.275L14.5525 11.85L15.2 12L14.5525 12.15L14.9261 12.7L14.3533 12.35L14.2039 13L14.0545 12.35Z" fill="white"/>
</svg>
