<svg width="24" height="24" viewBox="0 0 24 24" fill="none" xmlns="http://www.w3.org/2000/svg">
<path d="M18.4 1.84C16.52 0.68 14.36 0 12 0V1.84H18.4Z" fill="#ED4C5C"/>
<path d="M12 3.67999H20.64C19.96 2.99999 19.2 2.36 18.4 1.84H12V3.67999Z" fill="white"/>
<path d="M12 5.52001H22.12C21.68 4.84001 21.2 4.24001 20.68 3.68001L12 3.67999V5.52001Z" fill="#ED4C5C"/>
<path d="M12 7.36H23.08C22.8 6.72 22.48 6.08001 22.12 5.52001H12V7.36Z" fill="white"/>
<path d="M12 9.20001H23.68C23.52 8.56001 23.32 7.96 23.08 7.36H12V9.20001Z" fill="#ED4C5C"/>
<path d="M12 11.08H23.96C23.92 10.44 23.8 9.83999 23.68 9.23999H12V11.08Z" fill="white"/>
<path d="M23.96 11.08H12V12H0C0 12.32 -3.8743e-08 12.6 0.04 12.92H23.96C24 12.6 24 12.32 24 12C24 11.68 24 11.36 23.96 11.08Z" fill="#ED4C5C"/>
<path d="M0.31999 14.76H23.68C23.84 14.16 23.92 13.56 23.96 12.92H0.04C0.08 13.52 0.15999 14.16 0.31999 14.76Z" fill="white"/>
<path d="M0.919995 16.6H23.08C23.32 16 23.52 15.4 23.68 14.76H0.31999C0.47999 15.4 0.679995 16 0.919995 16.6Z" fill="#ED4C5C"/>
<path d="M1.87999 18.44H22.12C22.48 17.84 22.8 17.24 23.08 16.6H0.919995C1.2 17.24 1.51999 17.84 1.87999 18.44Z" fill="white"/>
<path d="M3.32001 20.28H20.68C21.2 19.72 21.72 19.08 22.12 18.44H1.87999C2.27999 19.12 2.80001 19.72 3.32001 20.28Z" fill="#ED4C5C"/>
<path d="M5.56 22.12H18.44C19.28 21.6 20 20.96 20.68 20.28H3.32001C4.00001 21 4.75999 21.6 5.56 22.12Z" fill="white"/>
<path d="M12 24C14.36 24 16.56 23.32 18.44 22.12H5.56C7.43999 23.32 9.64001 24 12 24Z" fill="#ED4C5C"/>
<path d="M5.6 1.84C4.76 2.36 4 3 3.32 3.68C2.76 4.24 2.28 4.88 1.88 5.52C1.52 6.12 1.16 6.72 0.92 7.36C0.68 7.96 0.48 8.56 0.32 9.2C0.16 9.8 0.08 10.4 0.04 11.04C-3.8743e-08 11.36 0 11.68 0 12H12V0C9.64 0 7.48 0.68 5.6 1.84Z" fill="#428BC1"/>
<path d="M9.20001 0.4L9.40001 1H10L9.52001 1.4L9.68001 2L9.20001 1.64L8.72001 2L8.88001 1.4L8.40001 1H9.00001L9.20001 0.4ZM10.8 2.8L11 3.4H11.6L11.12 3.8L11.28 4.4L10.8 4.04L10.32 4.4L10.48 3.8L10 3.4H10.6L10.8 2.8ZM7.60001 2.8L7.80001 3.4H8.40001L7.92001 3.8L8.08001 4.4L7.60001 4.04L7.12001 4.4L7.28001 3.8L6.80001 3.4H7.40001L7.60001 2.8ZM9.20001 5.2L9.40001 5.8H10L9.52001 6.2L9.68001 6.8L9.20001 6.44L8.72001 6.8L8.88001 6.2L8.40001 5.8H9.00001L9.20001 5.2ZM6.00001 5.2L6.20001 5.8H6.80001L6.32001 6.2L6.48001 6.8L6.00001 6.44L5.52001 6.8L5.68001 6.2L5.20001 5.8H5.80001L6.00001 5.2ZM2.80001 5.2L3.00001 5.8H3.60001L3.12001 6.2L3.28001 6.8L2.80001 6.44L2.32001 6.8L2.48001 6.2L2.00001 5.8H2.60001L2.80001 5.2ZM10.8 7.6L11 8.2H11.6L11.12 8.6L11.28 9.2L10.8 8.84L10.32 9.2L10.48 8.6L10 8.2H10.6L10.8 7.6ZM7.60001 7.6L7.80001 8.2H8.40001L7.92001 8.6L8.08001 9.2L7.60001 8.84L7.12001 9.2L7.28001 8.6L6.80001 8.2H7.40001L7.60001 7.6ZM4.40001 7.6L4.60001 8.2H5.20001L4.72001 8.6L4.88001 9.2L4.40001 8.84L3.92001 9.2L4.08001 8.6L3.60001 8.2H4.20001L4.40001 7.6ZM9.20001 10L9.40001 10.6H10L9.52001 11L9.68001 11.6L9.20001 11.24L8.72001 11.6L8.88001 11L8.40001 10.6H9.00001L9.20001 10ZM6.00001 10L6.20001 10.6H6.80001L6.32001 11L6.48001 11.6L6.00001 11.24L5.52001 11.6L5.68001 11L5.20001 10.6H5.80001L6.00001 10ZM2.80001 10L3.00001 10.6H3.60001L3.12001 11L3.28001 11.6L2.80001 11.24L2.32001 11.6L2.48001 11L2.00001 10.6H2.60001L2.80001 10ZM3.92001 4.4L4.40001 4.04L4.88001 4.4L4.68001 3.8L5.16001 3.4H4.56001L4.40001 2.8L4.20001 3.4H3.64001L4.12001 3.76L3.92001 4.4ZM0.72001 9.2L1.20001 8.84L1.68001 9.2L1.48001 8.6L1.96001 8.2H1.40001L1.20001 7.6L1.00001 8.2H0.60001C0.60001 8.24 0.56001 8.28 0.56001 8.32L0.88001 8.56L0.72001 9.2Z" fill="white"/>
</svg>
