<svg width="24" height="24" fill="none" xmlns="http://www.w3.org/2000/svg"><path d="M.168 13.988a11.909 11.909 0 001.69 4.423c3.095-.863 5.817-2.495 6.785-6.132 1.065-4.003-.15-8.198-3.057-10.421-3.96 2.507-6.243 7.22-5.418 12.13zm23.664-3.975c1.098 6.534-3.308 12.722-9.844 13.819-1.1.185-2.19.214-3.245.103a12.024 12.024 0 01-8.46-4.892l19.428-5.57c.28-.08.207-.349-.024-.333l-8.145.57c1.148-1.109 2.021-2.468 1.915-4.346-.214-3.042-3.311-6.012-9.071-7.966a12.017 12.017 0 016.87-1.333c5.228.548 9.663 4.512 10.576 9.95" fill="#E61E42"/></svg>