<svg width="24" height="18" viewBox="0 0 24 18" fill="none" xmlns="http://www.w3.org/2000/svg">
<path fill-rule="evenodd" clip-rule="evenodd" d="M0 1.14961C0 0.638746 0.414137 0.224609 0.925 0.224609H23.075C23.5859 0.224609 24 0.638746 24 1.14961C24 1.66047 23.5859 2.07461 23.075 2.07461H0.925C0.414137 2.07461 0 1.66047 0 1.14961Z" fill="#2C2C2C"/>
<path fill-rule="evenodd" clip-rule="evenodd" d="M0 8.99922C0 8.48836 0.414137 8.07422 0.925 8.07422H23.075C23.5859 8.07422 24 8.48836 24 8.99922C24 9.51008 23.5859 9.92422 23.075 9.92422H0.925C0.414137 9.92422 0 9.51008 0 8.99922Z" fill="#2C2C2C"/>
<path fill-rule="evenodd" clip-rule="evenodd" d="M0 16.8488C0 16.338 0.414137 15.9238 0.925 15.9238H23.075C23.5859 15.9238 24 16.338 24 16.8488C24 17.3597 23.5859 17.7738 23.075 17.7738H0.925C0.414137 17.7738 0 17.3597 0 16.8488Z" fill="#2C2C2C"/>
</svg>
