<svg width="35" height="48" viewBox="0 0 35 48" fill="none" xmlns="http://www.w3.org/2000/svg">
<path d="M17.3064 0C12.7181 0.00589795 8.31932 1.99452 5.07492 5.52964C1.83051 9.06477 0.00543133 13.8577 1.84122e-05 18.8571C-0.00547698 22.9427 1.2193 26.9173 3.48647 30.1714C3.48647 30.1714 3.95846 30.8486 4.03555 30.9463L17.3064 48L30.5835 30.9377C30.6528 30.8469 31.1263 30.1714 31.1263 30.1714L31.1279 30.1663C33.3939 26.9136 34.6182 22.9408 34.6128 18.8571C34.6074 13.8577 32.7823 9.06477 29.5379 5.52964C26.2935 1.99452 21.8947 0.00589795 17.3064 0V0ZM17.3064 25.7143C16.0617 25.7143 14.845 25.3121 13.8101 24.5586C12.7752 23.8052 11.9685 22.7342 11.4922 21.4813C11.0159 20.2283 10.8913 18.8495 11.1341 17.5194C11.3769 16.1892 11.9763 14.9674 12.8564 14.0084C13.7365 13.0494 14.8579 12.3963 16.0787 12.1318C17.2994 11.8672 18.5648 12.003 19.7147 12.522C20.8647 13.041 21.8475 13.9199 22.539 15.0475C23.2305 16.1752 23.5996 17.5009 23.5996 18.8571C23.5975 20.6751 22.9338 22.4179 21.7541 23.7034C20.5743 24.9888 18.9748 25.712 17.3064 25.7143V25.7143Z" fill="#274DE0"/>
<ellipse cx="17.3705" cy="17.3705" rx="12.5775" ry="12.5775" fill="white"/>
</svg>
