<svg width="15" height="15" viewBox="0 0 15 15" fill="none" xmlns="http://www.w3.org/2000/svg">
<path d="M13.795 2.615C14.1844 2.22564 14.1844 1.59436 13.795 1.205C13.4056 0.815639 12.7744 0.815639 12.385 1.205L8.20711 5.38289C7.81658 5.77342 7.18342 5.77342 6.79289 5.38289L2.615 1.205C2.22564 0.815639 1.59436 0.815639 1.205 1.205C0.815639 1.59436 0.815639 2.22564 1.205 2.615L5.38289 6.79289C5.77342 7.18342 5.77342 7.81658 5.38289 8.20711L1.205 12.385C0.815639 12.7744 0.815639 13.4056 1.205 13.795C1.59436 14.1844 2.22564 14.1844 2.615 13.795L6.79289 9.61711C7.18342 9.22658 7.81658 9.22658 8.20711 9.61711L12.385 13.795C12.7744 14.1844 13.4056 14.1844 13.795 13.795C14.1844 13.4056 14.1844 12.7744 13.795 12.385L9.61711 8.20711C9.22658 7.81658 9.22658 7.18342 9.61711 6.79289L13.795 2.615Z" fill="#101010"/>
</svg>
