<svg width="16" height="16" viewBox="0 0 16 16" fill="none" xmlns="http://www.w3.org/2000/svg">
<path d="M15 1L15.4719 1.16518C15.5354 0.983882 15.4894 0.782266 15.3536 0.646447C15.2177 0.510628 15.0161 0.464618 14.8348 0.528071L15 1ZM10.1 15L9.64309 15.2031C9.72636 15.3904 9.91554 15.5079 10.1204 15.4996C10.3252 15.4912 10.5042 15.3587 10.5719 15.1652L10.1 15ZM1 5.9L0.834825 5.42807C0.641325 5.4958 0.508772 5.67478 0.500416 5.87962C0.492059 6.08446 0.60959 6.27364 0.796931 6.35691L1 5.9ZM14.6464 0.646447L6.94645 8.34645L7.65355 9.05355L15.3536 1.35355L14.6464 0.646447ZM14.5281 0.834825L9.62807 14.8348L10.5719 15.1652L15.4719 1.16518L14.5281 0.834825ZM10.5569 14.7969L7.75691 8.49693L6.84309 8.90307L9.64309 15.2031L10.5569 14.7969ZM7.50307 8.24309L1.20307 5.44309L0.796931 6.35691L7.09693 9.15691L7.50307 8.24309ZM1.16518 6.37193L15.1652 1.47193L14.8348 0.528071L0.834825 5.42807L1.16518 6.37193Z" fill="white"/>
</svg>
