<svg width="19" height="17" viewBox="0 0 19 17" fill="none" xmlns="http://www.w3.org/2000/svg">
<path d="M0.618344 15.582C0.618344 15.0751 1.02933 14.6641 1.5363 14.6641H17.5012C18.0082 14.6641 18.4192 15.0751 18.4192 15.582C18.4192 16.089 18.0082 16.5 17.5012 16.5H1.5363C1.02933 16.5 0.618344 16.089 0.618344 15.582ZM18.9532 6.072C18.7564 5.33764 17.9788 4.89702 17.2293 5.09897L12.7806 6.26462C12.4525 6.35057 12.1033 6.26441 11.8528 6.03575L6.18995 0.865227C5.94043 0.637398 5.59268 0.551074 5.26558 0.635764C4.62244 0.80228 4.31776 1.53832 4.65506 2.11068L7.18892 6.41037C7.52577 6.98196 7.22279 7.71711 6.58102 7.88538L3.67741 8.64671C3.37881 8.725 3.06079 8.661 2.81572 8.47329L1.66037 7.58837C1.46993 7.4425 1.22274 7.39292 0.990776 7.45405C0.493461 7.5851 0.258899 8.1549 0.519819 8.59809L2.04307 11.1854C2.26995 11.5708 2.72202 11.7595 3.15466 11.6463C5.11197 11.1343 10.8242 9.63964 17.9507 7.77022C18.7096 7.55909 19.1499 6.80637 18.9532 6.072Z" fill="#2C2C2C"/>
</svg>
