<svg width="19" height="16" viewBox="0 0 19 16" fill="none" xmlns="http://www.w3.org/2000/svg">
<path d="M0.618344 15.082C0.618344 14.5751 1.02933 14.1641 1.5363 14.1641H17.5012C18.0082 14.1641 18.4192 14.5751 18.4192 15.082C18.4192 15.589 18.0082 16 17.5012 16H1.5363C1.02933 16 0.618344 15.589 0.618344 15.082ZM18.9532 5.572C18.7564 4.83764 17.9788 4.39702 17.2293 4.59897L12.7806 5.76462C12.4525 5.85057 12.1033 5.76441 11.8528 5.53575L6.18995 0.365227C5.94043 0.137398 5.59268 0.0510742 5.26558 0.135764C4.62244 0.30228 4.31776 1.03832 4.65506 1.61068L7.18892 5.91037C7.52577 6.48196 7.22279 7.21711 6.58102 7.38538L3.67741 8.14671C3.37881 8.225 3.06079 8.161 2.81572 7.97329L1.66037 7.08837C1.46993 6.9425 1.22274 6.89292 0.990776 6.95405C0.493461 7.0851 0.258899 7.6549 0.519819 8.09809L2.04307 10.6854C2.26995 11.0708 2.72202 11.2595 3.15466 11.1463C5.11197 10.6343 10.8242 9.13964 17.9507 7.27022C18.7096 7.05909 19.1499 6.30637 18.9532 5.572Z" fill="#B1B1B1"/>
</svg>
