<svg width="22" height="16" viewBox="0 0 22 16" fill="none" xmlns="http://www.w3.org/2000/svg">
<path d="M6 8.53333C7.66 8.53333 9 7.104 9 5.33333C9 3.56267 7.66 2.13333 6 2.13333C4.34 2.13333 3 3.56267 3 5.33333C3 7.104 4.34 8.53333 6 8.53333ZM18 2.13333H12C10.9 2.13333 10 3.09333 10 4.26667V9.6H2V1.06667C2 0.48 1.55 0 1 0C0.45 0 0 0.48 0 1.06667V14.9333C0 15.52 0.45 16 1 16C1.55 16 2 15.52 2 14.9333V12.8H20V14.9333C20 15.52 20.45 16 21 16C21.55 16 22 15.52 22 14.9333V6.4C22 4.04267 20.21 2.13333 18 2.13333Z" fill="#B1B1B1"/>
</svg>
