<svg width="22" height="17" viewBox="0 0 22 17" fill="none" xmlns="http://www.w3.org/2000/svg">
<path d="M6 9.03333C7.66 9.03333 9 7.604 9 5.83333C9 4.06267 7.66 2.63333 6 2.63333C4.34 2.63333 3 4.06267 3 5.83333C3 7.604 4.34 9.03333 6 9.03333ZM18 2.63333H12C10.9 2.63333 10 3.59333 10 4.76667V10.1H2V1.56667C2 0.98 1.55 0.5 1 0.5C0.45 0.5 0 0.98 0 1.56667V15.4333C0 16.02 0.45 16.5 1 16.5C1.55 16.5 2 16.02 2 15.4333V13.3H20V15.4333C20 16.02 20.45 16.5 21 16.5C21.55 16.5 22 16.02 22 15.4333V6.9C22 4.54267 20.21 2.63333 18 2.63333Z" fill="#2C2C2C"/>
</svg>
