<svg width="17" height="16" viewBox="0 0 17 16" fill="none" xmlns="http://www.w3.org/2000/svg">
<path d="M10.625 0C11.2127 0 11.6875 0.447812 11.6875 1V2.00469C12.9691 2.07219 14.0881 2.85906 14.5164 4.00938L15.6852 7.15C16.4555 7.45 17 8.16562 17 9V15C17 15.5531 16.5252 16 15.9375 16H14.875C14.2873 16 13.8125 15.5531 13.8125 15V13.5H3.1875V15C3.1875 15.5531 2.7127 16 2.125 16H1.0625C0.475801 16 0 15.5531 0 15V9C0 8.16562 0.543203 7.45 1.31518 7.15L2.48359 4.00938C2.91191 2.85906 4.03086 2.07219 5.3125 2.00469V1C5.3125 0.447812 5.7873 0 6.375 0H10.625ZM5.4918 4C5.04023 4 4.63848 4.26875 4.48906 4.66875L3.62246 7H13.3775L12.5109 4.66875C12.3615 4.26875 11.9598 4 11.5082 4H5.4918ZM3.1875 11C3.7752 11 4.25 10.5531 4.25 10C4.25 9.44687 3.7752 9 3.1875 9C2.5998 9 2.125 9.44687 2.125 10C2.125 10.5531 2.5998 11 3.1875 11ZM13.8125 9C13.2248 9 12.75 9.44687 12.75 10C12.75 10.5531 13.2248 11 13.8125 11C14.4002 11 14.875 10.5531 14.875 10C14.875 9.44687 14.4002 9 13.8125 9Z" fill="#B1B1B1"/>
</svg>
