<svg width="17" height="17" viewBox="0 0 17 17" fill="none" xmlns="http://www.w3.org/2000/svg">
<path d="M10.625 0.5C11.2127 0.5 11.6875 0.947812 11.6875 1.5V2.50469C12.9691 2.57219 14.0881 3.35906 14.5164 4.50938L15.6852 7.65C16.4555 7.95 17 8.66562 17 9.5V15.5C17 16.0531 16.5252 16.5 15.9375 16.5H14.875C14.2873 16.5 13.8125 16.0531 13.8125 15.5V14H3.1875V15.5C3.1875 16.0531 2.7127 16.5 2.125 16.5H1.0625C0.475801 16.5 0 16.0531 0 15.5V9.5C0 8.66562 0.543203 7.95 1.31518 7.65L2.48359 4.50938C2.91191 3.35906 4.03086 2.57219 5.3125 2.50469V1.5C5.3125 0.947812 5.7873 0.5 6.375 0.5H10.625ZM5.4918 4.5C5.04023 4.5 4.63848 4.76875 4.48906 5.16875L3.62246 7.5H13.3775L12.5109 5.16875C12.3615 4.76875 11.9598 4.5 11.5082 4.5H5.4918ZM3.1875 11.5C3.7752 11.5 4.25 11.0531 4.25 10.5C4.25 9.94687 3.7752 9.5 3.1875 9.5C2.5998 9.5 2.125 9.94687 2.125 10.5C2.125 11.0531 2.5998 11.5 3.1875 11.5ZM13.8125 9.5C13.2248 9.5 12.75 9.94687 12.75 10.5C12.75 11.0531 13.2248 11.5 13.8125 11.5C14.4002 11.5 14.875 11.0531 14.875 10.5C14.875 9.94687 14.4002 9.5 13.8125 9.5Z" fill="#2C2C2C"/>
</svg>
