<svg width="20" height="21" viewBox="0 0 20 21" fill="none" xmlns="http://www.w3.org/2000/svg">
<path d="M12.0773 3.5C12.0773 2.96957 11.8586 2.46086 11.4692 2.08579C11.0798 1.71071 10.5517 1.5 10.001 1.5C9.45037 1.5 8.92225 1.71071 8.53287 2.08579C8.14348 2.46086 7.92473 2.96957 7.92473 3.5M17.538 8.196L18.9759 17.196C19.0214 17.4808 19.0024 17.7718 18.9203 18.0489C18.8381 18.3261 18.6948 18.5828 18.5001 18.8016C18.3054 19.0204 18.0639 19.1961 17.7921 19.3167C17.5203 19.4372 17.2247 19.4997 16.9255 19.5H3.07656C2.77719 19.5 2.48135 19.4377 2.20933 19.3173C1.9373 19.1969 1.69553 19.0212 1.50058 18.8024C1.30563 18.5836 1.16212 18.3267 1.07988 18.0494C0.997641 17.7721 0.978622 17.481 1.02413 17.196L2.46197 8.196C2.53739 7.72359 2.78596 7.29282 3.16264 6.9817C3.53933 6.67059 4.01924 6.4997 4.51544 6.5H15.4866C15.9827 6.49994 16.4623 6.67094 16.8388 6.98203C17.2153 7.29312 17.4637 7.72376 17.5391 8.196H17.538Z" stroke="#2C2C2C" stroke-width="1.85" stroke-linecap="round" stroke-linejoin="round"/>
</svg>
