<svg width="16" height="16" viewBox="0 0 16 16" fill="none" xmlns="http://www.w3.org/2000/svg">
<path d="M7.80488 16C6.7252 16 5.71057 15.7899 4.76098 15.3696C3.81138 14.9499 2.98537 14.38 2.28293 13.66C1.58049 12.94 1.02452 12.0933 0.615024 11.12C0.205008 10.1467 0 9.10667 0 8C0 6.89333 0.205008 5.85333 0.615024 4.88C1.02452 3.90667 1.58049 3.06 2.28293 2.34C2.98537 1.62 3.81138 1.04987 4.76098 0.6296C5.71057 0.209867 6.7252 0 7.80488 0C9.70406 0 11.3657 0.609867 12.7899 1.8296C14.2145 3.04987 15.1024 4.58 15.4537 6.42H13.8537C13.6065 5.44667 13.1611 4.57653 12.5175 3.8096C11.8733 3.0432 11.0829 2.46667 10.1463 2.08V2.4C10.1463 2.84 9.99363 3.21653 9.68819 3.5296C9.38224 3.8432 9.01463 4 8.58537 4H7.02439V5.6C7.02439 5.82667 6.94972 6.01653 6.80039 6.1696C6.65054 6.3232 6.46504 6.4 6.2439 6.4H4.68293V8H6.2439V10.4H5.46341L1.71707 6.56C1.67805 6.8 1.64215 7.04 1.60937 7.28C1.57711 7.52 1.56098 7.76 1.56098 8C1.56098 9.74667 2.15935 11.2467 3.3561 12.5C4.55285 13.7533 6.03577 14.3867 7.80488 14.4V16ZM14.9073 15.6L12.4098 13.04C12.1366 13.2 11.8439 13.3333 11.5317 13.44C11.2195 13.5467 10.8878 13.6 10.5366 13.6C9.56098 13.6 8.73158 13.2501 8.04839 12.5504C7.36572 11.8501 7.02439 11 7.02439 10C7.02439 9 7.36572 8.14987 8.04839 7.4496C8.73158 6.74987 9.56098 6.4 10.5366 6.4C11.5122 6.4 12.3416 6.74987 13.0248 7.4496C13.7074 8.14987 14.0488 9 14.0488 10C14.0488 10.36 13.9967 10.7 13.8927 11.02C13.7886 11.34 13.6585 11.64 13.5024 11.92L16 14.48L14.9073 15.6ZM10.5366 12C11.0829 12 11.5447 11.8067 11.922 11.42C12.2992 11.0333 12.4878 10.56 12.4878 10C12.4878 9.44 12.2992 8.96667 11.922 8.58C11.5447 8.19333 11.0829 8 10.5366 8C9.99024 8 9.52846 8.19333 9.15122 8.58C8.77398 8.96667 8.58537 9.44 8.58537 10C8.58537 10.56 8.77398 11.0333 9.15122 11.42C9.52846 11.8067 9.99024 12 10.5366 12Z" fill="#B1B1B1"/>
</svg>
