<svg width="16" height="17" viewBox="0 0 16 17" fill="none" xmlns="http://www.w3.org/2000/svg">
<path d="M7.80488 16.5C6.7252 16.5 5.71057 16.2899 4.76098 15.8696C3.81138 15.4499 2.98537 14.88 2.28293 14.16C1.58049 13.44 1.02452 12.5933 0.615024 11.62C0.205008 10.6467 0 9.60667 0 8.5C0 7.39333 0.205008 6.35333 0.615024 5.38C1.02452 4.40667 1.58049 3.56 2.28293 2.84C2.98537 2.12 3.81138 1.54987 4.76098 1.1296C5.71057 0.709867 6.7252 0.5 7.80488 0.5C9.70406 0.5 11.3657 1.10987 12.7899 2.3296C14.2145 3.54987 15.1024 5.08 15.4537 6.92H13.8537C13.6065 5.94667 13.1611 5.07653 12.5175 4.3096C11.8733 3.5432 11.0829 2.96667 10.1463 2.58V2.9C10.1463 3.34 9.99363 3.71653 9.6882 4.0296C9.38224 4.3432 9.01463 4.5 8.58537 4.5H7.02439V6.1C7.02439 6.32667 6.94972 6.51653 6.80039 6.6696C6.65054 6.8232 6.46504 6.9 6.2439 6.9H4.68293V8.5H6.2439V10.9H5.46341L1.71707 7.06C1.67805 7.3 1.64215 7.54 1.60937 7.78C1.57711 8.02 1.56098 8.26 1.56098 8.5C1.56098 10.2467 2.15935 11.7467 3.3561 13C4.55285 14.2533 6.03577 14.8867 7.80488 14.9V16.5ZM14.9073 16.1L12.4098 13.54C12.1366 13.7 11.8439 13.8333 11.5317 13.94C11.2195 14.0467 10.8878 14.1 10.5366 14.1C9.56098 14.1 8.73158 13.7501 8.04839 13.0504C7.36572 12.3501 7.02439 11.5 7.02439 10.5C7.02439 9.5 7.36572 8.64987 8.04839 7.9496C8.73158 7.24987 9.56098 6.9 10.5366 6.9C11.5122 6.9 12.3416 7.24987 13.0248 7.9496C13.7074 8.64987 14.0488 9.5 14.0488 10.5C14.0488 10.86 13.9967 11.2 13.8927 11.52C13.7886 11.84 13.6585 12.14 13.5024 12.42L16 14.98L14.9073 16.1ZM10.5366 12.5C11.0829 12.5 11.5447 12.3067 11.922 11.92C12.2992 11.5333 12.4878 11.06 12.4878 10.5C12.4878 9.94 12.2992 9.46667 11.922 9.08C11.5447 8.69333 11.0829 8.5 10.5366 8.5C9.99024 8.5 9.52845 8.69333 9.15122 9.08C8.77398 9.46667 8.58537 9.94 8.58537 10.5C8.58537 11.06 8.77398 11.5333 9.15122 11.92C9.52845 12.3067 9.99024 12.5 10.5366 12.5Z" fill="#2C2C2C"/>
</svg>
