<svg width="18" height="21" viewBox="0 0 18 21" fill="none" xmlns="http://www.w3.org/2000/svg">
<path d="M0.075 19.5C0.075 20.0109 0.489137 20.425 1 20.425C1.51086 20.425 1.925 20.0109 1.925 19.5H0.075ZM16.075 19.5C16.075 20.0109 16.4891 20.425 17 20.425C17.5109 20.425 17.925 20.0109 17.925 19.5H16.075ZM1.925 19.5V18.5H0.075V19.5H1.925ZM1.925 18.5C1.925 15.6972 4.19715 13.425 7 13.425V11.575C3.17543 11.575 0.075 14.6754 0.075 18.5H1.925ZM7 13.425H11V11.575H7V13.425ZM11 13.425C13.8028 13.425 16.075 15.6972 16.075 18.5H17.925C17.925 14.6754 14.8246 11.575 11 11.575V13.425ZM16.075 18.5V19.5H17.925V18.5H16.075ZM8.99999 8.575C7.30171 8.575 5.92498 7.19828 5.92498 5.5H4.07498C4.07498 8.22001 6.27998 10.425 8.99999 10.425V8.575ZM5.92498 5.5C5.92498 3.80172 7.30171 2.425 8.99999 2.425V0.575C6.27998 0.575 4.07498 2.78 4.07498 5.5H5.92498ZM8.99999 2.425C10.6982 2.425 12.075 3.80173 12.075 5.5H13.925C13.925 2.77999 11.7199 0.575 8.99999 0.575V2.425ZM12.075 5.5C12.075 7.19827 10.6982 8.575 8.99999 8.575V10.425C11.7199 10.425 13.925 8.22001 13.925 5.5H12.075Z" fill="#2C2C2C"/>
</svg>
