<svg width="16" height="18" viewBox="0 0 16 18" fill="none" xmlns="http://www.w3.org/2000/svg">
<path d="M8.00271 17.6884C7.85106 17.6884 7.70562 17.6312 7.59839 17.5293C7.49116 17.4275 7.43092 17.2894 7.43092 17.1453V15.7411L6.69216 16.4438C6.58479 16.5456 6.43923 16.6027 6.28749 16.6026C6.13576 16.6025 5.99028 16.5452 5.88306 16.4432C5.77585 16.3412 5.71567 16.203 5.71578 16.0589C5.71589 15.9148 5.77627 15.7767 5.88364 15.6748L7.43092 14.2054V9.94047L3.5427 12.0724L2.97548 14.0816C2.93605 14.2207 2.84004 14.3393 2.70858 14.4112C2.57711 14.4831 2.42095 14.5024 2.27446 14.465C2.12797 14.4275 2.00313 14.3363 1.92743 14.2115C1.85172 14.0866 1.83134 13.9383 1.87077 13.7992L2.1418 12.8413L0.860979 13.5429C0.729718 13.6138 0.574268 13.6325 0.42855 13.5949C0.282832 13.5573 0.158677 13.4665 0.0831792 13.3424C0.0076812 13.2182 -0.0130307 13.0707 0.0255633 12.932C0.0641573 12.7934 0.158924 12.6749 0.289183 12.6024L1.57001 11.9008L0.559071 11.6434C0.486534 11.6249 0.418554 11.5929 0.35901 11.5494C0.299467 11.5059 0.249526 11.4517 0.21204 11.3899C0.174554 11.3281 0.150257 11.2599 0.140536 11.1891C0.130814 11.1184 0.135859 11.0465 0.155383 10.9777C0.174906 10.9088 0.208525 10.8442 0.254321 10.7877C0.300116 10.7311 0.357191 10.6837 0.422287 10.6481C0.487383 10.6125 0.559225 10.5894 0.633711 10.5802C0.708197 10.5709 0.783868 10.5757 0.856405 10.5943L2.96976 11.1319L6.85912 8.99995L2.97091 6.86803L0.855261 7.40562C0.70972 7.44007 0.555755 7.41883 0.426551 7.34648C0.297347 7.27413 0.203253 7.15646 0.164549 7.01883C0.125846 6.88121 0.145633 6.73466 0.219645 6.61076C0.293658 6.48687 0.415969 6.39555 0.560214 6.3565L1.57001 6.0991L0.289183 5.39751C0.223629 5.36211 0.166095 5.31475 0.119893 5.25816C0.0736906 5.20156 0.0397332 5.13684 0.0199755 5.06773C0.00021781 4.99861 -0.00494998 4.92647 0.00476975 4.85546C0.0144895 4.78444 0.0389048 4.71595 0.0766099 4.65393C0.114315 4.59191 0.164565 4.53759 0.224467 4.49408C0.284369 4.45058 0.35274 4.41876 0.425644 4.40046C0.498548 4.38215 0.574544 4.37773 0.649257 4.38743C0.72397 4.39713 0.795925 4.42077 0.860979 4.45699L2.1418 5.15858L1.87077 4.19959C1.84996 4.13028 1.84389 4.05772 1.85292 3.98616C1.86194 3.9146 1.88587 3.84545 1.92332 3.78276C1.96077 3.72007 2.01099 3.66509 2.07104 3.62102C2.1311 3.57695 2.19979 3.54468 2.27311 3.52608C2.34644 3.50748 2.42293 3.50293 2.49812 3.51269C2.57332 3.52246 2.64571 3.54634 2.71109 3.58295C2.77646 3.61956 2.83351 3.66816 2.8789 3.72593C2.9243 3.78369 2.95713 3.84946 2.97548 3.91939L3.54156 5.9275L7.43092 8.05943V3.7945L5.88364 2.32507C5.83047 2.27465 5.78829 2.21478 5.75949 2.14888C5.73069 2.08298 5.71583 2.01234 5.71578 1.94099C5.71573 1.86964 5.73047 1.79897 5.75918 1.73304C5.78788 1.6671 5.82998 1.60717 5.88306 1.55668C5.93615 1.50619 5.99919 1.46613 6.06858 1.43878C6.13798 1.41143 6.21236 1.39733 6.28749 1.39727C6.36262 1.39722 6.43703 1.41123 6.50646 1.43849C6.57589 1.46574 6.63899 1.50572 6.69216 1.55614L7.43092 2.25882V0.85455C7.43092 0.71053 7.49116 0.572409 7.59839 0.470572C7.70562 0.368735 7.85106 0.311523 8.00271 0.311523C8.15436 0.311523 8.2998 0.368735 8.40703 0.470572C8.51427 0.572409 8.57451 0.71053 8.57451 0.85455V2.25882L9.31441 1.55614C9.42178 1.45432 9.56734 1.39717 9.71908 1.39727C9.87081 1.39738 10.0163 1.45472 10.1235 1.55668C10.2307 1.65865 10.2909 1.79689 10.2908 1.94099C10.2907 2.08509 10.2303 2.22324 10.1229 2.32507L8.57451 3.7945V8.05943L12.4627 5.9275L13.0299 3.91831C13.0694 3.77918 13.1654 3.66063 13.2968 3.58874C13.4283 3.51684 13.5845 3.49748 13.731 3.53493C13.8775 3.57237 14.0023 3.66355 14.078 3.7884C14.1537 3.91326 14.1741 4.06156 14.1347 4.20068L13.8648 5.15858L15.1456 4.45699C15.2769 4.38611 15.4323 4.36742 15.578 4.40499C15.7237 4.44256 15.8479 4.53335 15.9234 4.65753C15.9989 4.78171 16.0196 4.92922 15.981 5.06785C15.9424 5.20648 15.8476 5.32499 15.7174 5.39751L14.4366 6.0991L15.4464 6.3565C15.5928 6.39394 15.7177 6.48512 15.7934 6.60997C15.8691 6.73482 15.8895 6.88312 15.85 7.02225C15.8106 7.16137 15.7146 7.27992 15.5831 7.35182C15.4517 7.42371 15.2955 7.44307 15.149 7.40562L13.0357 6.86803L9.14631 8.99995L13.0345 11.1319L15.149 10.5943C15.2955 10.557 15.4516 10.5765 15.583 10.6485C15.7143 10.7205 15.8102 10.8391 15.8495 10.9782C15.8887 11.1173 15.8682 11.2656 15.7924 11.3903C15.7166 11.5151 15.5917 11.6061 15.4452 11.6434L14.4354 11.9008L15.7162 12.6024C15.8465 12.6749 15.9413 12.7934 15.9799 12.932C16.0185 13.0707 15.9977 13.2182 15.9222 13.3424C15.8467 13.4665 15.7226 13.5573 15.5769 13.5949C15.4312 13.6325 15.2757 13.6138 15.1444 13.5429L13.8636 12.8413L14.1335 13.8003C14.1543 13.8696 14.1604 13.9422 14.1514 14.0137C14.1423 14.0853 14.1184 14.1544 14.081 14.2171C14.0435 14.2798 13.9933 14.3348 13.9332 14.3789C13.8732 14.4229 13.8045 14.4552 13.7312 14.4738C13.6578 14.4924 13.5814 14.497 13.5062 14.4872C13.431 14.4774 13.3586 14.4536 13.2932 14.4169C13.2278 14.3803 13.1708 14.3317 13.1254 14.274C13.08 14.2162 13.0472 14.1504 13.0288 14.0805L12.4627 12.0724L8.57451 9.94047V14.2054L10.1218 15.6748C10.2292 15.7767 10.2895 15.9148 10.2896 16.0589C10.2898 16.203 10.2296 16.3412 10.1224 16.4432C10.0151 16.5452 9.86967 16.6025 9.71793 16.6026C9.5662 16.6027 9.42064 16.5456 9.31327 16.4438L8.57336 15.7411V17.1453C8.57336 17.2894 8.51312 17.4275 8.40589 17.5293C8.29866 17.6312 8.15322 17.6884 8.00157 17.6884H8.00271Z" fill="#101010"/>
</svg>
