<svg width="10" height="8" viewBox="0 0 10 8" fill="none" xmlns="http://www.w3.org/2000/svg">
<path d="M7.7453 0.584216C7.90377 0.433341 8.11466 0.349931 8.33347 0.351587C8.55227 0.353242 8.76187 0.439834 8.91805 0.59309C9.07422 0.746345 9.16475 0.954278 9.17054 1.17301C9.17632 1.39175 9.09691 1.60417 8.94905 1.76547L4.4603 7.37922C4.38311 7.46235 4.28995 7.52907 4.1864 7.57538C4.08284 7.62169 3.971 7.64664 3.85758 7.64874C3.74416 7.65084 3.63148 7.63005 3.52627 7.5876C3.42107 7.54516 3.32551 7.48194 3.2453 7.40172L0.268547 4.42497C0.185649 4.34772 0.119159 4.25457 0.0730434 4.15107C0.0269275 4.04757 0.00213019 3.93584 0.00013131 3.82255C-0.00186757 3.70926 0.0189729 3.59673 0.0614091 3.49167C0.103845 3.38661 0.167008 3.29117 0.247129 3.21105C0.32725 3.13093 0.422688 3.06776 0.52775 3.02533C0.632811 2.98289 0.745344 2.96205 0.858635 2.96405C0.971926 2.96605 1.08365 2.99085 1.18715 3.03696C1.29065 3.08308 1.3838 3.14957 1.46105 3.23247L3.8168 5.58709L7.72392 0.608966C7.73096 0.600305 7.73847 0.592041 7.74642 0.584216H7.7453Z" fill="#757575"/>
</svg>
