<svg width="16" height="15" viewBox="0 0 16 15" fill="none" xmlns="http://www.w3.org/2000/svg">
<path d="M1.60156 2.7C1.60156 2.38174 1.72799 2.07652 1.95303 1.85147C2.17808 1.62643 2.4833 1.5 2.80156 1.5H13.2016C13.5198 1.5 13.825 1.62643 14.0501 1.85147C14.2751 2.07652 14.4016 2.38174 14.4016 2.7V7.1H1.60156V2.7Z" stroke="#757575" stroke-width="2" stroke-linecap="round" stroke-linejoin="round"/>
<path d="M0.800781 11.8994V13.4994" stroke="#757575" stroke-width="1.5" stroke-linecap="round" stroke-linejoin="round"/>
<path d="M15.1992 11.8994V13.4994" stroke="#757575" stroke-width="1.5" stroke-linecap="round" stroke-linejoin="round"/>
<path d="M4.75 5.7C4.75 5.4949 4.80276 5.33425 4.85503 5.25H7.14497C7.19724 5.33425 7.25 5.4949 7.25 5.7V5.75H4.75V5.7Z" stroke="#757575" stroke-width="1.5" stroke-linecap="round" stroke-linejoin="round"/>
<path d="M8.75 5.7C8.75 5.4949 8.80276 5.33425 8.85503 5.25H11.145C11.1972 5.33425 11.25 5.4949 11.25 5.7V5.75H8.75V5.7Z" stroke="#757575" stroke-width="1.5" stroke-linecap="round" stroke-linejoin="round"/>
<mask id="path-6-inside-1_102_30713" fill="white">
<path d="M0 8.30059C0 7.98233 0.126428 7.6771 0.351472 7.45206C0.576516 7.22701 0.88174 7.10059 1.2 7.10059H14.8C15.1183 7.10059 15.4235 7.22701 15.6485 7.45206C15.8736 7.6771 16 7.98233 16 8.30059V11.9006H0V8.30059Z"/>
</mask>
<path d="M1.2 7.10059V1.10059V7.10059ZM14.8 7.10059V1.10059V7.10059ZM16 11.9006V17.9006C19.3137 17.9006 22 15.2143 22 11.9006H16ZM0 11.9006H-6C-6 15.2143 -3.31371 17.9006 0 17.9006L0 11.9006ZM6 8.30059C6 9.57362 5.49429 10.7945 4.59411 11.6947L-3.89117 3.20942C-5.24143 4.55968 -6 6.39103 -6 8.30059H6ZM4.59411 11.6947C3.69394 12.5949 2.47304 13.1006 1.2 13.1006V1.10059C-0.709557 1.10059 -2.54091 1.85915 -3.89117 3.20942L4.59411 11.6947ZM1.2 13.1006H14.8V1.10059H1.2V13.1006ZM14.8 13.1006C13.527 13.1006 12.3061 12.5949 11.4059 11.6947L19.8912 3.20942C18.5409 1.85916 16.7096 1.10059 14.8 1.10059V13.1006ZM11.4059 11.6947C10.5057 10.7945 10 9.57363 10 8.30059H22C22 6.39102 21.2414 4.55967 19.8912 3.20942L11.4059 11.6947ZM10 8.30059V11.9006H22V8.30059H10ZM16 5.90059H0V17.9006H16V5.90059ZM6 11.9006V8.30059H-6V11.9006H6Z" fill="#757575" mask="url(#path-6-inside-1_102_30713)"/>
</svg>
