<svg width="21" height="20" viewBox="0 0 21 20" fill="none" xmlns="http://www.w3.org/2000/svg">
<path d="M15.5 7.875H15.375V8V11C15.375 13.141 13.641 14.875 11.5 14.875H5.5C3.35904 14.875 1.625 13.141 1.625 11V1.125H17.5C18.541 1.125 19.375 1.95904 19.375 3V6C19.375 6.49728 19.1775 6.97419 18.8258 7.32582C18.4742 7.67746 17.9973 7.875 17.5 7.875H15.5ZM3.5 2.875H3.375V3V11C3.375 12.169 4.33096 13.125 5.5 13.125H11.5C12.669 13.125 13.625 12.169 13.625 11V3V2.875H13.5H3.5ZM17.5 6.125H17.625V6V3V2.875H17.5H15.5H15.375V3V6V6.125H15.5H17.5ZM1.625 17.125H17.375V18.875H1.625V17.125Z" fill="#101010" stroke="#F5F7F9" stroke-width="0.25"/>
</svg>
