<svg width="16" height="16" viewBox="0 0 16 16" fill="none" xmlns="http://www.w3.org/2000/svg">
<path d="M8 14C6.4087 14 4.88258 13.3679 3.75736 12.2426C2.63214 11.1174 2 9.5913 2 8C2 6.4087 2.63214 4.88258 3.75736 3.75736C4.88258 2.63214 6.4087 2 8 2C9.5913 2 11.1174 2.63214 12.2426 3.75736C13.3679 4.88258 14 6.4087 14 8C14 9.5913 13.3679 11.1174 12.2426 12.2426C11.1174 13.3679 9.5913 14 8 14ZM8 15.125C9.88967 15.125 11.7019 14.3743 13.0381 13.0381C14.3743 11.7019 15.125 9.88967 15.125 8C15.125 6.11033 14.3743 4.29806 13.0381 2.96186C11.7019 1.62567 9.88967 0.875 8 0.875C6.11033 0.875 4.29806 1.62567 2.96186 2.96186C1.62567 4.29806 0.875 6.11033 0.875 8C0.875 9.88967 1.62567 11.7019 2.96186 13.0381C4.29806 14.3743 6.11033 15.125 8 15.125Z" fill="#274DE0" stroke="#274DE0" stroke-width="0.25"/>
<path d="M8.93597 6.79051L8.97254 6.61862L8.79816 6.64047L6.79441 6.8916L6.70647 6.90262L6.68777 6.98926L6.61602 7.32176L6.58885 7.44768L6.71554 7.47105L7.10605 7.54308C7.22866 7.57263 7.25886 7.60148 7.26832 7.61721C7.27887 7.63475 7.28949 7.67783 7.26184 7.80445L7.26184 7.80445L7.2617 7.80511L6.61603 10.8392C6.61602 10.8393 6.616 10.8393 6.61599 10.8394C6.52876 11.2429 6.54429 11.5719 6.6919 11.8041C6.84467 12.0444 7.11426 12.1447 7.44521 12.1447C7.7016 12.1447 7.9752 12.0858 8.21774 11.9875C8.45897 11.8898 8.68025 11.7488 8.82329 11.5763L8.84299 11.5526L8.84938 11.5224L8.92638 11.1584L9.00435 10.7898L8.7215 11.0387C8.57537 11.1673 8.35234 11.2228 8.20383 11.2228C8.11479 11.2228 8.08256 11.1942 8.06653 11.1653C8.04413 11.1251 8.0314 11.045 8.06015 10.9071C8.06016 10.9071 8.06018 10.907 8.06019 10.9069L8.93597 6.79051ZM8.70706 5.64461C8.8946 5.45707 8.99996 5.20272 8.99996 4.9375C8.99996 4.67228 8.8946 4.41793 8.70706 4.23039C8.51953 4.04286 8.26517 3.9375 7.99996 3.9375C7.73474 3.9375 7.48039 4.04286 7.29285 4.23039C7.10532 4.41793 6.99996 4.67228 6.99996 4.9375C6.99996 5.20272 7.10532 5.45707 7.29285 5.64461C7.48039 5.83214 7.73474 5.9375 7.99996 5.9375C8.26517 5.9375 8.51953 5.83214 8.70706 5.64461Z" fill="#274DE0" stroke="#274DE0" stroke-width="0.25"/>
</svg>
