<svg width="16" height="16" viewBox="0 0 16 16" fill="none" xmlns="http://www.w3.org/2000/svg">
<path d="M8 14.05C6.39544 14.05 4.8566 13.4126 3.722 12.278C2.58741 11.1434 1.95 9.60456 1.95 8C1.95 6.39544 2.58741 4.8566 3.722 3.722C4.8566 2.58741 6.39544 1.95 8 1.95C9.60456 1.95 11.1434 2.58741 12.278 3.722C13.4126 4.8566 14.05 6.39544 14.05 8C14.05 9.60456 13.4126 11.1434 12.278 12.278C11.1434 13.4126 9.60456 14.05 8 14.05ZM8 15.075C9.87641 15.075 11.676 14.3296 13.0028 13.0028C14.3296 11.676 15.075 9.87641 15.075 8C15.075 6.12359 14.3296 4.32404 13.0028 2.99722C11.676 1.6704 9.87641 0.925 8 0.925C6.12359 0.925 4.32404 1.6704 2.99722 2.99722C1.6704 4.32404 0.925 6.12359 0.925 8C0.925 9.87641 1.6704 11.676 2.99722 13.0028C4.32404 14.3296 6.12359 15.075 8 15.075Z" fill="#274DE0" stroke="#274DE0" stroke-width="0.15"/>
<path d="M8.88707 6.78011L8.90901 6.67697L8.80438 6.69008L6.80063 6.94121L6.74786 6.94782L6.73665 6.9998L6.6649 7.33231L6.64859 7.40786L6.7246 7.42188L7.11643 7.49415C7.24161 7.52416 7.2904 7.55693 7.31116 7.59143C7.33263 7.62711 7.33848 7.68787 7.31068 7.81512L7.3106 7.81551L6.6649 10.8498C6.66489 10.8498 6.66489 10.8498 6.66488 10.8499C6.57859 11.2489 6.59709 11.5618 6.73409 11.7773C6.87418 11.9976 7.12361 12.0947 7.44521 12.0947C7.69442 12.0947 7.96165 12.0373 8.19896 11.9412C8.43549 11.8453 8.64876 11.7084 8.78481 11.5444L8.79663 11.5301L8.80046 11.512L8.87746 11.148L8.92424 10.9269L8.75454 11.0762C8.59686 11.215 8.36083 11.2728 8.20383 11.2728C8.10228 11.2728 8.05013 11.2387 8.02284 11.1897C7.99173 11.1337 7.98154 11.039 8.01122 10.8968C8.01123 10.8968 8.01124 10.8968 8.01125 10.8967L8.88707 6.78011ZM8.67171 5.60925C8.84987 5.43109 8.94996 5.18946 8.94996 4.9375C8.94996 4.68554 8.84987 4.44391 8.67171 4.26575C8.49355 4.08759 8.25191 3.9875 7.99996 3.9875C7.748 3.9875 7.50637 4.08759 7.32821 4.26575C7.15005 4.44391 7.04996 4.68554 7.04996 4.9375C7.04996 5.18946 7.15005 5.43109 7.32821 5.60925C7.50637 5.78741 7.748 5.8875 7.99996 5.8875C8.25191 5.8875 8.49355 5.78741 8.67171 5.60925Z" fill="#274DE0" stroke="#274DE0" stroke-width="0.15"/>
</svg>
