<svg width="18" height="18" viewBox="0 0 18 18" fill="none" xmlns="http://www.w3.org/2000/svg">
<path d="M1.91098 1.93652L15.0693 14.4328C15.319 14.6699 15.4592 14.9915 15.4592 15.3269C15.4592 15.6622 15.319 15.9838 15.0693 16.2209V16.2209C14.8196 16.458 14.4809 16.5911 14.1279 16.5911C13.7748 16.5911 13.4362 16.458 13.1864 16.2209L9.97212 13.1158C9.76177 12.9129 9.64377 12.6397 9.64355 12.355V12.1674C9.64357 12.0237 9.61353 11.8814 9.55517 11.7487C9.4968 11.6161 9.41127 11.4958 9.30354 11.3948L8.88854 11.0309C8.74766 10.9074 8.57634 10.8196 8.39036 10.7755C8.20437 10.7314 8.0097 10.7324 7.82424 10.7785V10.7785C7.5318 10.851 7.22449 10.8496 6.93279 10.7745C6.64109 10.6993 6.37516 10.553 6.16137 10.3501L3.11028 7.45221C1.30026 5.73326 0.634185 3.13755 1.91098 1.93652Z" stroke="#101010" stroke-linejoin="round"/>
<path d="M14.1446 1.40234L11.3856 4.02248C11.1733 4.22406 11.0049 4.46338 10.89 4.72677C10.7751 4.99017 10.716 5.27248 10.716 5.55759V6.0616C10.716 6.13291 10.7012 6.20353 10.6724 6.26941C10.6437 6.33529 10.6016 6.39514 10.5485 6.44555L10.1445 6.82916" stroke="#101010" stroke-linecap="round" stroke-linejoin="round"/>
<path d="M11.2852 7.915L11.6891 7.53139C11.7422 7.48095 11.8052 7.44093 11.8746 7.41364C11.9439 7.38634 12.0183 7.3723 12.0934 7.37231H12.6241C12.9243 7.37231 13.2216 7.31615 13.4989 7.20703C13.7763 7.09791 14.0283 6.93798 14.2405 6.73635L16.9995 4.11621" stroke="#101010" stroke-linecap="round" stroke-linejoin="round"/>
<path d="M15.572 2.75879L12.7148 5.47221" stroke="#101010" stroke-linecap="round" stroke-linejoin="round"/>
<path d="M6.99974 12.7991L3.43829 16.2003C3.17039 16.4547 2.80709 16.5976 2.42828 16.5976C2.04947 16.5976 1.68617 16.4547 1.41827 16.2003V16.2003C1.15045 15.9459 1 15.6009 1 15.2412C1 14.8814 1.15045 14.5364 1.41827 14.282L4.42829 11.4424" stroke="#101010" stroke-linecap="round" stroke-linejoin="round"/>
</svg>
