<svg width="13" height="16" viewBox="0 0 13 16" fill="none" xmlns="http://www.w3.org/2000/svg">
<path d="M11.5152 6.28571C11.5152 4.92174 10.9692 3.61364 9.99743 2.64917C9.02565 1.68469 7.70764 1.14286 6.33333 1.14286C4.95903 1.14286 3.64101 1.68469 2.66923 2.64917C1.69746 3.61364 1.15152 4.92174 1.15152 6.28571C1.15152 8.39543 2.8523 11.1451 6.33333 14.4389C9.81436 11.1451 11.5152 8.39543 11.5152 6.28571ZM6.33333 16C2.11073 12.1909 0 8.952 0 6.28571C0 4.61864 0.66726 3.01984 1.85499 1.84104C3.04272 0.662243 4.65363 0 6.33333 0C8.01304 0 9.62395 0.662243 10.8117 1.84104C11.9994 3.01984 12.6667 4.61864 12.6667 6.28571C12.6667 8.952 10.5559 12.1909 6.33333 16Z" fill="#979797"/>
<path d="M6.33333 7.99967C6.7842 7.99967 7.2166 7.8153 7.53542 7.48711C7.85423 7.15892 8.03333 6.7138 8.03333 6.24967C8.03333 5.78555 7.85423 5.34043 7.53542 5.01224C7.2166 4.68405 6.7842 4.49967 6.33333 4.49967C5.88247 4.49967 5.45006 4.68405 5.13125 5.01224C4.81244 5.34043 4.63333 5.78555 4.63333 6.24967C4.63333 6.7138 4.81244 7.15892 5.13125 7.48711C5.45006 7.8153 5.88247 7.99967 6.33333 7.99967ZM6.33333 9.16634C5.58189 9.16634 4.86122 8.85905 4.32986 8.31207C3.79851 7.76509 3.5 7.02322 3.5 6.24967C3.5 5.47613 3.79851 4.73426 4.32986 4.18728C4.86122 3.6403 5.58189 3.33301 6.33333 3.33301C7.08478 3.33301 7.80545 3.6403 8.3368 4.18728C8.86816 4.73426 9.16667 5.47613 9.16667 6.24967C9.16667 7.02322 8.86816 7.76509 8.3368 8.31207C7.80545 8.85905 7.08478 9.16634 6.33333 9.16634Z" fill="#979797"/>
</svg>
