<svg width="48" height="48" viewBox="0 0 48 48" fill="none" xmlns="http://www.w3.org/2000/svg">
<path d="M23.3064 0C18.7181 0.00589795 14.3193 1.99452 11.0749 5.52964C7.83051 9.06477 6.00543 13.8577 6.00002 18.8571C5.99452 22.9427 7.2193 26.9173 9.48647 30.1714C9.48647 30.1714 9.95846 30.8486 10.0356 30.9463L23.3064 48L36.5835 30.9377C36.6528 30.8469 37.1263 30.1714 37.1263 30.1714L37.1279 30.1663C39.3939 26.9136 40.6182 22.9408 40.6128 18.8571C40.6074 13.8577 38.7823 9.06477 35.5379 5.52964C32.2935 1.99452 27.8947 0.00589795 23.3064 0ZM23.3064 25.7143C22.0617 25.7143 20.845 25.3121 19.8101 24.5586C18.7752 23.8052 17.9685 22.7342 17.4922 21.4813C17.0159 20.2283 16.8913 18.8495 17.1341 17.5194C17.3769 16.1892 17.9763 14.9674 18.8564 14.0084C19.7365 13.0494 20.8579 12.3963 22.0787 12.1318C23.2994 11.8672 24.5648 12.003 25.7147 12.522C26.8647 13.041 27.8475 13.9199 28.539 15.0475C29.2305 16.1752 29.5996 17.5009 29.5996 18.8571C29.5975 20.6751 28.9338 22.4179 27.7541 23.7034C26.5743 24.9888 24.9748 25.712 23.3064 25.7143Z" fill="#274DE0"/>
<ellipse cx="23.3705" cy="17.3705" rx="12.5775" ry="12.5775" fill="white"/>
</svg>
