<svg width="21" height="20" viewBox="0 0 21 20" fill="none" xmlns="http://www.w3.org/2000/svg">
<g clip-path="url(#clip0_824_36406)">
<path d="M19.375 13V13.875H1.625V13C1.625 10.8945 2.27002 9.03886 3.56055 7.42816L3.56057 7.42814C4.85047 5.81741 6.50411 4.79966 8.52585 4.3723L8.625 4.35134V4.25V4C8.625 3.48345 8.80761 3.04454 9.17631 2.67646L9.17646 2.67631C9.54454 2.30761 9.98345 2.125 10.5 2.125C11.0166 2.125 11.4558 2.30762 11.8246 2.67639C12.1927 3.04444 12.375 3.48338 12.375 4V4.25V4.35151L12.4743 4.37234C14.5129 4.79977 16.1706 5.81758 17.4522 7.42784C18.7342 9.03853 19.375 10.8943 19.375 13ZM3.42628 11.9822L3.40568 12.125H3.55H17.45H17.593L17.5739 11.9833C17.3365 10.2199 16.5466 8.75871 15.2065 7.60526C13.8668 6.45204 12.296 5.875 10.5 5.875C8.70396 5.875 7.1374 6.45205 5.80617 7.60551C4.47449 8.75877 3.68052 10.2194 3.42628 11.9822ZM0.625 16.875V15.125H20.375V16.875H0.625Z" fill="#101010" stroke="#F5F7F9" stroke-width="0.25"/>
</g>
<defs>
<clipPath id="clip0_824_36406">
<rect width="20" height="20" fill="white" transform="translate(0.5)"/>
</clipPath>
</defs>
</svg>
