<svg width="16" height="14" viewBox="0 0 16 14" fill="none" xmlns="http://www.w3.org/2000/svg">
<path d="M2.5 13.175C2.5 13.0261 2.55268 12.8833 2.64645 12.778C2.74021 12.6727 2.86739 12.6136 3 12.6136H13C13.1326 12.6136 13.2598 12.6727 13.3536 12.778C13.4473 12.8833 13.5 13.0261 13.5 13.175C13.5 13.3239 13.4473 13.4667 13.3536 13.5719C13.2598 13.6772 13.1326 13.7364 13 13.7364H3C2.86739 13.7364 2.74021 13.6772 2.64645 13.5719C2.55268 13.4667 2.5 13.3239 2.5 13.175ZM13.991 1.3855L14.015 1.38663C14.2018 1.40091 14.3845 1.45542 14.553 1.54719C14.6744 1.6106 14.7786 1.70901 14.855 1.83238C14.922 1.94466 15 2.1434 15 2.50831V9.23505L14.999 9.26199C14.9862 9.47177 14.9376 9.67683 14.856 9.86606C14.7995 10.0023 14.7118 10.1193 14.602 10.2052C14.502 10.2804 14.325 10.368 14 10.368H2.009L1.985 10.3668C1.79817 10.3524 1.61554 10.2979 1.447 10.2063C1.32567 10.1428 1.22148 10.0444 1.145 9.92108C1.078 9.8088 1 9.61006 1 9.24515V2.51841L1.001 2.49147C1.01372 2.28168 1.06227 2.07659 1.144 1.8874C1.20052 1.75117 1.28816 1.63418 1.398 1.54831C1.498 1.47308 1.675 1.3855 2 1.3855H13.991ZM14 0.262695H2C0 0.262695 0 2.50831 0 2.50831V9.24515C0 11.4908 2 11.4908 2 11.4908H14C16 11.4908 16 9.24515 16 9.24515V2.50831C16 0.262695 14 0.262695 14 0.262695Z" fill="#101010"/>
</svg>
