<svg width="20" height="15" viewBox="0 0 20 15" fill="none" xmlns="http://www.w3.org/2000/svg">
<path d="M14.4995 9.88542C13.2447 8.86667 11.6059 8.25 9.81085 8.25C8.01576 8.25 6.37696 8.86667 5.11995 9.8875C5.08524 9.9167 5.06399 9.95731 5.06066 10.0008C5.05733 10.0443 5.07218 10.0873 5.10209 10.1208L5.90586 11.0146C5.97061 11.0854 6.08448 11.0937 6.16039 11.0333C7.13385 10.2333 8.41095 9.75 9.81085 9.75C11.2108 9.75 12.4879 10.2333 13.4613 11.0313C13.5372 11.0917 13.6511 11.0833 13.7158 11.0125L14.5196 10.1188C14.5821 10.05 14.5732 9.94583 14.4995 9.88542ZM17.1207 6.96667C15.1403 5.42708 12.5928 4.5 9.81085 4.5C7.02891 4.5 4.4814 5.42708 2.49876 6.96667C2.46249 6.99521 2.43979 7.03598 2.43561 7.08008C2.43143 7.12418 2.4461 7.16804 2.47644 7.20208L3.28021 8.09583C3.34272 8.16667 3.45659 8.175 3.53027 8.11667C5.23382 6.79583 7.4241 6 9.81085 6C12.1976 6 14.3879 6.79583 16.0892 8.11667C16.1651 8.175 16.2767 8.16667 16.3393 8.09583L17.143 7.20208C17.2056 7.13125 17.1966 7.025 17.1207 6.96667V6.96667ZM19.7263 4.07083C17.0158 1.99583 13.5462 0.75 9.7662 0.75C6.0108 0.75 2.56351 1.97917 -0.140286 4.02917C-0.158861 4.04309 -0.174264 4.06035 -0.185585 4.07991C-0.196906 4.09948 -0.203917 4.12096 -0.206205 4.14309C-0.208494 4.16522 -0.206014 4.18755 -0.198911 4.20878C-0.191807 4.23 -0.180225 4.24968 -0.164845 4.26667L0.638926 5.16042C0.701442 5.22917 0.813077 5.23958 0.886756 5.18333C3.3137 3.34792 6.40152 2.25 9.7662 2.25C13.1554 2.25 16.2634 3.36458 18.697 5.22292C18.7729 5.28125 18.8845 5.27083 18.9471 5.2L19.7508 4.30625C19.8156 4.23542 19.8044 4.12917 19.7263 4.07083ZM8.3596 13.1667C8.3596 13.5203 8.51015 13.8594 8.77812 14.1095C9.0461 14.3595 9.40955 14.5 9.78853 14.5C10.1675 14.5 10.531 14.3595 10.7989 14.1095C11.0669 13.8594 11.2175 13.5203 11.2175 13.1667C11.2175 12.813 11.0669 12.4739 10.7989 12.2239C10.531 11.9738 10.1675 11.8333 9.78853 11.8333C9.40955 11.8333 9.0461 11.9738 8.77812 12.2239C8.51015 12.4739 8.3596 12.813 8.3596 13.1667Z" fill="#101010"/>
</svg>
