<svg width="10" height="9" viewBox="0 0 10 9" fill="none" xmlns="http://www.w3.org/2000/svg">
<path d="M6.27836e-05 1.3C6.27836e-05 1.08783 0.0878603 0.884344 0.244141 0.734315C0.400421 0.584286 0.612382 0.5 0.833396 0.5H9.16673C9.38774 0.5 9.5997 0.584286 9.75599 0.734315C9.91227 0.884344 10.0001 1.08783 10.0001 1.3C10.0001 1.51217 9.91227 1.71566 9.75599 1.86569C9.5997 2.01571 9.38774 2.1 9.16673 2.1H0.833396C0.612382 2.1 0.400421 2.01571 0.244141 1.86569C0.0878603 1.71566 6.27836e-05 1.51217 6.27836e-05 1.3ZM6.27836e-05 4.5C6.27836e-05 4.28783 0.0878603 4.08434 0.244141 3.93431C0.400421 3.78429 0.612382 3.7 0.833396 3.7H5.8334C6.05441 3.7 6.26637 3.78429 6.42265 3.93431C6.57893 4.08434 6.66673 4.28783 6.66673 4.5C6.66673 4.71217 6.57893 4.91566 6.42265 5.06569C6.26637 5.21571 6.05441 5.3 5.8334 5.3H0.833396C0.612382 5.3 0.400421 5.21571 0.244141 5.06569C0.0878603 4.91566 6.27836e-05 4.71217 6.27836e-05 4.5ZM0.833396 6.9C0.612382 6.9 0.400421 6.98429 0.244141 7.13432C0.0878603 7.28434 6.27836e-05 7.48783 6.27836e-05 7.7C6.27836e-05 7.91217 0.0878603 8.11566 0.244141 8.26569C0.400421 8.41572 0.612382 8.5 0.833396 8.5H2.50006C2.72108 8.5 2.93304 8.41572 3.08932 8.26569C3.2456 8.11566 3.3334 7.91217 3.3334 7.7C3.3334 7.48783 3.2456 7.28434 3.08932 7.13432C2.93304 6.98429 2.72108 6.9 2.50006 6.9H0.833396Z" fill="#101010"/>
</svg>
