<svg width="18" height="18" viewBox="0 0 18 18" fill="none" xmlns="http://www.w3.org/2000/svg">
<rect width="18" height="18" rx="4" fill="#274DE0"/>
<path d="M12.2453 5.85765C12.4038 5.70678 12.6147 5.62337 12.8335 5.62502C13.0523 5.62668 13.2619 5.71327 13.418 5.86653C13.5742 6.01978 13.6648 6.22772 13.6705 6.44645C13.6763 6.66518 13.5969 6.87761 13.449 7.0389L8.9603 12.6527C8.88311 12.7358 8.78995 12.8025 8.6864 12.8488C8.58284 12.8951 8.471 12.9201 8.35758 12.9222C8.24416 12.9243 8.13148 12.9035 8.02627 12.861C7.92107 12.8186 7.82551 12.7554 7.7453 12.6752L4.76855 9.6984C4.68565 9.62116 4.61916 9.52801 4.57304 9.42451C4.52693 9.32101 4.50213 9.20928 4.50013 9.09599C4.49813 8.9827 4.51897 8.87017 4.56141 8.76511C4.60385 8.66004 4.66701 8.56461 4.74713 8.48449C4.82725 8.40436 4.92269 8.3412 5.02775 8.29877C5.13281 8.25633 5.24534 8.23549 5.35864 8.23749C5.47193 8.23949 5.58365 8.26428 5.68715 8.3104C5.79065 8.35652 5.8838 8.42301 5.96105 8.5059L8.3168 10.8605L12.2239 5.8824C12.231 5.87374 12.2385 5.86548 12.2464 5.85765H12.2453Z" fill="white"/>
</svg>
