<svg width="8" height="9" viewBox="0 0 8 9" fill="none" xmlns="http://www.w3.org/2000/svg">
<path d="M7.59714 1.70857C7.81963 1.48608 7.81964 1.12535 7.59714 0.902857V0.902857C7.37465 0.680365 7.01392 0.680365 6.79143 0.902857L4.70711 2.98718C4.31658 3.3777 3.68342 3.3777 3.29289 2.98718L1.20857 0.902858C0.98608 0.680366 0.625349 0.680365 0.402857 0.902857V0.902857C0.180365 1.12535 0.180365 1.48608 0.402857 1.70857L2.48718 3.79289C2.8777 4.18342 2.8777 4.81658 2.48718 5.20711L0.402858 7.29143C0.180366 7.51392 0.180365 7.87465 0.402857 8.09714V8.09714C0.625349 8.31964 0.98608 8.31964 1.20857 8.09714L3.29289 6.01282C3.68342 5.6223 4.31658 5.6223 4.70711 6.01282L6.79143 8.09714C7.01392 8.31963 7.37465 8.31964 7.59714 8.09714V8.09714C7.81964 7.87465 7.81964 7.51392 7.59714 7.29143L5.51282 5.20711C5.1223 4.81658 5.1223 4.18342 5.51282 3.79289L7.59714 1.70857Z" fill="#6882E9"/>
</svg>
