<svg width="136" height="135" viewBox="0 0 136 135" fill="none" xmlns="http://www.w3.org/2000/svg">
<path fill-rule="evenodd" clip-rule="evenodd" d="M87.8623 51.8634C88.2552 52.2553 88.5669 52.7209 88.7796 53.2334C88.9923 53.7459 89.1017 54.2954 89.1017 54.8503C89.1017 55.4052 88.9923 55.9547 88.7796 56.4672C88.5669 56.9798 88.2552 57.4453 87.8623 57.8372L62.5498 83.1497C62.1579 83.5426 61.6924 83.8543 61.1799 84.067C60.6673 84.2796 60.1179 84.3891 59.5629 84.3891C59.008 84.3891 58.4586 84.2796 57.946 84.067C57.4335 83.8543 56.968 83.5426 56.5761 83.1497L43.9198 70.4934C43.5276 70.1012 43.2164 69.6355 43.0042 69.1231C42.7919 68.6106 42.6826 68.0613 42.6826 67.5066C42.6826 66.9519 42.7919 66.4026 43.0042 65.8901C43.2164 65.3776 43.5276 64.9119 43.9198 64.5197C44.3121 64.1275 44.7777 63.8163 45.2902 63.604C45.8027 63.3917 46.352 63.2825 46.9067 63.2825C47.4614 63.2825 48.0107 63.3917 48.5232 63.604C49.0357 63.8163 49.5013 64.1275 49.8936 64.5197L59.5629 74.1975L81.8886 51.8634C82.2805 51.4706 82.746 51.1589 83.2585 50.9462C83.7711 50.7335 84.3205 50.624 84.8754 50.624C85.4304 50.624 85.9798 50.7335 86.4924 50.9462C87.0049 51.1589 87.4704 51.4706 87.8623 51.8634Z" fill="#2F80ED"/>
<path d="M87.1804 21.1988L79.4086 13.233L85.4421 7.34301L90.6907 12.7182L98.2009 12.6254C101.452 12.5869 104.677 13.1989 107.688 14.4252C110.699 15.6516 113.435 17.4676 115.734 19.7664C118.032 22.0653 119.848 24.8007 121.075 27.8116C122.301 30.8225 122.913 34.0483 122.875 37.2991L122.79 44.8093L128.157 50.0579C130.481 52.3293 132.328 55.0423 133.589 58.0376C134.85 61.0329 135.5 64.2501 135.5 67.5C135.5 70.7499 134.85 73.9671 133.589 76.9624C132.328 79.9577 130.481 82.6707 128.157 84.9421L122.782 90.1907L122.875 97.7009C122.913 100.952 122.301 104.177 121.075 107.188C119.848 110.199 118.032 112.935 115.734 115.234C113.435 117.532 110.699 119.348 107.688 120.575C104.677 121.801 101.452 122.413 98.2009 122.375L90.6907 122.29L85.4421 127.657C83.1707 129.981 80.4577 131.828 77.4624 133.089C74.4671 134.35 71.2499 135 68 135C64.7501 135 61.5329 134.35 58.5376 133.089C55.5423 131.828 52.8293 129.981 50.5579 127.657L45.3093 122.282L37.7991 122.375C34.5483 122.413 31.3225 121.801 28.3116 120.575C25.3007 119.348 22.5653 117.532 20.2664 115.234C17.9676 112.935 16.1516 110.199 14.9252 107.188C13.6989 104.177 13.0869 100.952 13.1254 97.7009L13.2098 90.1907L7.84301 84.9421C5.51859 82.6707 3.6716 79.9577 2.4106 76.9624C1.14959 73.9671 0.5 70.7499 0.5 67.5C0.5 64.2501 1.14959 61.0329 2.4106 58.0376C3.6716 55.0423 5.51859 52.3293 7.84301 50.0579L13.2182 44.8093L13.1254 37.2991C13.0869 34.0483 13.6989 30.8225 14.9252 27.8116C16.1516 24.8007 17.9676 22.0653 20.2664 19.7664C22.5653 17.4676 25.3007 15.6516 28.3116 14.4252C31.3225 13.1989 34.5483 12.5869 37.7991 12.6254L45.3093 12.7098L50.5579 7.34301C52.8293 5.01859 55.5423 3.1716 58.5376 1.9106C61.5329 0.64959 64.7501 0 68 0C71.2499 0 74.4671 0.64959 77.4624 1.9106C80.4577 3.1716 83.1707 5.01859 85.4421 7.34301L79.4086 13.233C77.9232 11.7123 76.1487 10.5039 74.1894 9.67888C72.2302 8.85386 70.1258 8.42886 68 8.42886C65.8742 8.42886 63.7698 8.85386 61.8106 9.67888C59.8513 10.5039 58.0768 11.7123 56.5913 13.233L48.8281 21.1988L37.6894 21.0638C35.5645 21.04 33.4562 21.4412 31.4885 22.2437C29.5207 23.0462 27.7332 24.2339 26.2309 25.7369C24.7286 27.24 23.5419 29.0281 22.7404 30.9963C21.939 32.9644 21.5389 35.0729 21.5638 37.1979L21.6988 48.3196L13.733 56.0913C12.2123 57.5768 11.0039 59.3513 10.1789 61.3106C9.35386 63.2698 8.92886 65.3742 8.92886 67.5C8.92886 69.6258 9.35386 71.7302 10.1789 73.6894C11.0039 75.6487 12.2123 77.4232 13.733 78.9086L21.6988 86.6719L21.5638 97.8105C21.54 99.9355 21.9412 102.044 22.7437 104.012C23.5462 105.979 24.7339 107.767 26.2369 109.269C27.74 110.771 29.5281 111.958 31.4963 112.76C33.4644 113.561 35.5729 113.961 37.6979 113.936L48.8196 113.801L56.5913 121.767C58.0768 123.288 59.8513 124.496 61.8106 125.321C63.7698 126.146 65.8742 126.571 68 126.571C70.1258 126.571 72.2302 126.146 74.1894 125.321C76.1487 124.496 77.9232 123.288 79.4086 121.767L87.1719 113.801L98.3105 113.936C100.436 113.96 102.544 113.559 104.512 112.756C106.479 111.954 108.267 110.766 109.769 109.263C111.271 107.76 112.458 105.972 113.26 104.004C114.061 102.036 114.461 99.9271 114.436 97.8021L114.301 86.6804L122.267 78.9086C123.788 77.4232 124.996 75.6487 125.821 73.6894C126.646 71.7302 127.071 69.6258 127.071 67.5C127.071 65.3742 126.646 63.2698 125.821 61.3106C124.996 59.3513 123.788 57.5768 122.267 56.0913L114.301 48.3281L114.436 37.1894C114.46 35.0645 114.059 32.9562 113.256 30.9885C112.454 29.0207 111.266 27.2332 109.763 25.7309C108.26 24.2286 106.472 23.0419 104.504 22.2404C102.536 21.439 100.427 21.0389 98.3021 21.0638L87.1804 21.1988Z" fill="#2F80ED"/>
</svg>
