<svg width="22" height="25" viewBox="0 0 22 25" fill="none" xmlns="http://www.w3.org/2000/svg">
<path d="M6.82804 24.5C5.98638 24.457 5.19435 24.1107 4.61548 23.5328C3.92292 22.9042 3.3049 22.2065 2.77234 21.4519C1.94042 20.3281 1.28282 19.098 0.819445 17.7989C0.295019 16.4013 0.0191346 14.9314 0.00295031 13.4489C-0.0377909 11.9942 0.344084 10.5568 1.10723 9.29213C1.66615 8.38059 2.46339 7.61938 3.42286 7.08115C4.37171 6.54522 5.45448 6.25675 6.56034 6.24525C7.39399 6.29178 8.21321 6.47153 8.98305 6.77684C9.59743 7.03191 10.2426 7.21121 10.9052 7.3097C11.636 7.16527 12.3502 6.95382 13.0374 6.67836C13.8508 6.37876 14.712 6.21098 15.5846 6.18212C15.7011 6.18212 15.8162 6.18212 15.9273 6.19474C17.8413 6.24651 19.6216 7.13293 20.7459 8.59386C19.8684 9.0366 19.1383 9.70022 18.6366 10.511C18.135 11.3217 17.8814 12.2478 17.9043 13.1863C17.8955 13.9039 18.0481 14.6151 18.3519 15.2731C18.6558 15.931 19.104 16.5208 19.6671 17.0034C20.1797 17.464 20.7765 17.8332 21.4286 18.0931C21.2947 18.4719 21.1408 18.8381 20.9775 19.2068C20.6067 20.0216 20.1493 20.7987 19.6122 21.5264C19.1044 22.2553 18.5132 22.9294 17.8494 23.5366C17.2439 24.1034 16.4367 24.4377 15.5846 24.4747C14.8623 24.4445 14.1527 24.2847 13.4938 24.0038C12.7834 23.7118 12.0198 23.5519 11.2451 23.5328C10.4486 23.5476 9.66246 23.7066 8.92951 24.0012C8.29645 24.2707 7.62011 24.4384 6.92843 24.4975L6.82804 24.5ZM11.0444 6.18212C10.944 6.18212 10.8436 6.18212 10.7432 6.17075C10.7221 6.02045 10.7109 5.86906 10.7097 5.71745C10.7535 4.45619 11.276 3.2517 12.1821 2.32333C12.6889 1.78978 13.3032 1.35669 13.9891 1.04927C14.6283 0.738844 15.3269 0.552094 16.0437 0.5C16.0638 0.665413 16.0638 0.827038 16.0638 0.981086C16.045 2.22252 15.5505 3.41559 14.6717 4.33985C14.2463 4.87804 13.7011 5.32184 13.0744 5.6401C12.4478 5.95836 11.7549 6.14336 11.0444 6.18212Z" fill="white"/>
</svg>
