<svg width="15" height="16" viewBox="0 0 15 16" fill="none" xmlns="http://www.w3.org/2000/svg">
<path d="M7.32265 0C6.31884 0 5.49199 0.82685 5.49199 1.83066V6.31213L0.362471 8.60046L0 8.75301V11.6699L0.686499 11.5942L5.49199 11.0603V12.1855L3.92799 13.2333L3.66133 13.4041V15.9994L4.38627 15.8468L7.32265 15.2555L10.2596 15.8474L10.984 16V13.4066L10.7167 13.2345L9.15332 12.1849V11.0603L13.9588 11.5942L14.6453 11.6705V8.75362L14.2828 8.60107L9.15332 6.31213V1.83066C9.15332 0.82685 8.32647 0 7.32265 0ZM7.32265 1.22044C7.66743 1.22044 7.93288 1.48589 7.93288 1.83066V7.11274L8.29535 7.26529L13.4249 9.55362V10.2981L8.61937 9.76354L7.93288 9.68726V12.8525L8.20015 13.0246L9.76354 14.0729V14.5123L7.43677 14.0546L7.32265 14.0168L7.20793 14.0534L4.88177 14.5111V14.0717L6.44577 13.024L6.71243 12.8519V9.68726L6.02593 9.76354L1.22044 10.2975V9.55301L6.34996 7.26468L6.71243 7.11213V1.83066C6.71243 1.48589 6.97788 1.22044 7.32265 1.22044Z" fill="#2C2C2C"/>
</svg>
