<svg width="19" height="18" viewBox="0 0 19 18" fill="none" xmlns="http://www.w3.org/2000/svg">
<path d="M1 16.999H17.8421" stroke="#2C2C2C" stroke-linecap="round" stroke-linejoin="round"/>
<path d="M6.89607 8.57812H3.52765C3.06257 8.57812 2.68555 8.95515 2.68555 9.42023V16.1571C2.68555 16.6222 3.06257 16.9992 3.52765 16.9992H6.89607C7.36116 16.9992 7.73818 16.6222 7.73818 16.1571V9.42023C7.73818 8.95515 7.36116 8.57812 6.89607 8.57812Z" stroke="#2C2C2C" stroke-linejoin="round"/>
<path d="M15.3153 1H8.57843C8.11335 1 7.73633 1.37702 7.73633 1.84211V16.1579C7.73633 16.623 8.11335 17 8.57843 17H15.3153C15.7804 17 16.1574 16.623 16.1574 16.1579V1.84211C16.1574 1.37702 15.7804 1 15.3153 1Z" stroke="#2C2C2C" stroke-linejoin="round"/>
<path d="M11.1079 12.7938H12.7921M4.37109 12.7938H6.0553M11.1079 9.00432H12.7921M11.1079 5.21484H12.7921" stroke="#2C2C2C" stroke-linecap="round" stroke-linejoin="round"/>
</svg>
