<svg width="138" height="48" viewBox="0 0 138 48" fill="none" xmlns="http://www.w3.org/2000/svg">
<g clip-path="url(#clip0_102_30495)">
<path d="M22.1477 29.3884C22.1477 27.9329 21.1886 25.6225 18.8826 25.6225C16.5767 25.6225 15.6884 27.2563 15.6884 28.8901V40.1853C13.1413 40.1853 11.0738 38.1188 11.0738 35.5671V28.8901C11.0738 27.2563 10.1148 25.6225 7.8088 25.6225C5.50285 25.6225 4.61453 27.9303 4.61453 29.3884V36.6344C4.61453 38.5961 3.02657 40.1853 1.0665 40.1853H0V29.1026C0 25.2658 2.84052 21.8906 7.8088 21.8906C10.1514 21.8906 12.067 22.6354 13.3798 23.8077C14.6926 22.6354 16.5374 21.8906 18.88 21.8906C23.919 21.8906 26.7596 25.2658 26.7596 29.1026V40.1853H25.6957C23.7356 40.1853 22.1477 38.5961 22.1477 36.6344V29.3884V29.3884Z" fill="#101010"/>
<path d="M38.6507 21.8926C44.2951 21.8926 48.0554 25.6218 48.0554 31.2707C48.0554 36.9196 44.2925 40.7196 38.6507 40.7196C33.009 40.7196 29.2461 36.9196 29.2461 31.2707C29.2461 25.6218 33.009 21.8926 38.6507 21.8926V21.8926ZM38.6507 36.9878C41.3838 36.9878 43.2653 34.68 43.2653 31.3048C43.2653 27.9296 41.3838 25.6218 38.6507 25.6218C35.9176 25.6218 34.0362 27.9296 34.0362 31.3048C34.0362 34.68 35.9176 36.9878 38.6507 36.9878Z" fill="#101010"/>
<path d="M63.6371 30.5603C63.6371 27.9326 62.4317 25.6221 59.379 25.6221C56.3262 25.6221 55.1549 27.9299 55.1549 30.5603V36.6341C55.1549 38.7662 53.7346 40.1876 51.6069 40.1876H50.543V30.2771C50.543 25.6247 53.7372 21.8955 59.3816 21.8955C65.0259 21.8955 68.2543 25.6247 68.2543 30.2771V40.1876H67.1904C65.06 40.1876 63.6424 38.7662 63.6424 36.6341V30.5603H63.6371Z" fill="#101010"/>
<path d="M71.4447 40.1874V17.0987C71.4447 15.1371 73.0327 13.5479 74.9927 13.5479H76.0566V28.5382L83.1553 22.4277H88.6215L81.0983 28.8922L81.452 28.6431L88.6215 40.1874H86.8815C84.7511 40.1874 82.5526 39.0152 81.4153 37.203L77.8647 31.6616L76.054 33.2246V35.5692C76.054 38.1183 73.9891 40.1874 71.4395 40.1874H71.4447Z" fill="#101010"/>
<path d="M92.7051 14.2559C94.4083 14.2559 95.5456 15.3914 95.5456 17.0987C95.5456 18.8059 94.411 19.9389 92.7051 19.9389C90.9992 19.9389 89.8672 18.8033 89.8672 17.0987C89.8672 15.394 90.9678 14.2559 92.7051 14.2559ZM95.011 40.1873H90.3965V22.425H91.4604C93.5908 22.425 95.0084 23.8464 95.0084 25.9759V40.1847L95.011 40.1873Z" fill="#101010"/>
<path d="M105.516 21.8926C108.249 21.8926 110.235 22.6033 111.443 24.4154V22.4276H116.058V39.335C116.058 44.8396 112.864 48.0024 107.754 48.0024H99.0594C99.0594 45.8703 100.584 44.4515 102.856 44.4515H106.087C109.531 44.4515 111.446 41.8578 111.446 38.4826V37.3104C110.204 39.2642 108.144 40.0089 105.482 40.0089C101.153 40.0089 97.4609 36.3505 97.4609 30.9167C97.4609 25.4828 101.153 21.8952 105.519 21.8952L105.516 21.8926ZM106.866 36.2771C109.599 36.2771 111.443 34.1109 111.443 30.9481C111.443 27.7854 109.599 25.6192 106.866 25.6192C104.132 25.6192 102.251 27.7854 102.251 30.9481C102.251 34.1109 104.132 36.2771 106.866 36.2771V36.2771Z" fill="#101010"/>
<path d="M127.912 21.8926C133.557 21.8926 137.317 25.6218 137.317 31.2707C137.317 36.9196 133.554 40.7196 127.912 40.7196C122.271 40.7196 118.508 36.9196 118.508 31.2707C118.508 25.6218 122.271 21.8926 127.912 21.8926V21.8926ZM127.912 36.9878C130.646 36.9878 132.527 34.68 132.527 31.3048C132.527 27.9296 130.646 25.6218 127.912 25.6218C125.179 25.6218 123.298 27.9296 123.298 31.3048C123.298 34.68 125.179 36.9878 127.912 36.9878Z" fill="#101010"/>
<path d="M97.5215 20.2013C97.5215 9.04507 106.559 0 117.706 0C128.854 0 137.891 9.04507 137.891 20.2013" fill="#FFD05C"/>
</g>
<defs>
<clipPath id="clip0_102_30495">
<rect width="137.891" height="48" fill="white"/>
</clipPath>
</defs>
</svg>
