<svg width="106" height="60" viewBox="0 0 106 60" fill="none" xmlns="http://www.w3.org/2000/svg">
<path fill-rule="evenodd" clip-rule="evenodd" d="M60.0525 29.9995C60.0525 13.4312 46.6094 0 30.026 0C13.4441 0 0 13.4312 0 29.9995C0 46.5688 13.4441 60 30.026 60C46.6094 60 60.0525 46.5688 60.0525 29.9995Z" fill="#21B2E7"/>
<path fill-rule="evenodd" clip-rule="evenodd" d="M41.9941 41.961C41.9941 46.8939 43.9353 51.3732 47.0899 54.6859C54.9209 49.2718 60.0528 40.2352 60.0528 29.9982C60.0528 27.7783 59.8089 25.6145 59.3506 23.5312C49.668 24.1134 41.9941 32.1391 41.9941 41.961Z" fill="#75BF43"/>
<path fill-rule="evenodd" clip-rule="evenodd" d="M18.9074 47.4671C18.7645 46.5266 18.3191 45.7004 17.666 45.1183C17.0119 44.5409 16.1683 44.2206 15.3156 44.223C14.4624 44.2215 13.6197 44.5419 12.9642 45.1197C12.3126 45.7004 11.8671 46.5266 11.7228 47.4671C11.5742 46.5247 11.901 45.4857 12.586 44.7399C13.2581 43.9831 14.2847 43.5295 15.3156 43.5352C16.346 43.5304 17.3706 43.9831 18.0442 44.7399C18.7288 45.4871 19.056 46.5247 18.9074 47.4671Z" fill="#FEFEFE"/>
<path fill-rule="evenodd" clip-rule="evenodd" d="M42.5637 46.0755C42.415 45.1336 42.7413 44.0941 43.4268 43.3492C44.099 42.5914 45.1241 42.1388 46.155 42.1426C47.1863 42.1383 48.211 42.5905 48.8851 43.3482C49.5691 44.0941 49.8969 45.1336 49.7478 46.0755C49.6039 45.1364 49.1585 44.3087 48.5054 43.728C47.8514 43.1502 47.0072 42.8304 46.155 42.8313C45.3018 42.8289 44.4591 43.1493 43.8046 43.728C43.1515 44.3087 42.7051 45.1364 42.5637 46.0755Z" fill="#FEFEFE"/>
<path fill-rule="evenodd" clip-rule="evenodd" d="M36.8134 4.70264H39.9069C40.1842 4.70264 40.1842 4.27332 39.9069 4.27332H36.8134C36.5362 4.27332 36.5362 4.70264 36.8134 4.70264Z" fill="#FEFEFE"/>
<path fill-rule="evenodd" clip-rule="evenodd" d="M38.358 6.97999H46.4834C46.7606 6.97999 46.7606 6.55067 46.4834 6.55067H38.358C38.0817 6.55067 38.0807 6.97999 38.358 6.97999Z" fill="#FEFEFE"/>
<path fill-rule="evenodd" clip-rule="evenodd" d="M36.8642 8.83131H41.8575C42.1352 8.83131 42.1352 8.40247 41.8575 8.40247H36.8642C36.5869 8.40247 36.5869 8.83131 36.8642 8.83131Z" fill="#FEFEFE"/>
<path fill-rule="evenodd" clip-rule="evenodd" d="M45.1233 31.1545H56.186C56.4633 31.1545 56.4633 30.7238 56.186 30.7238H45.1233C44.8456 30.7238 44.8456 31.1545 45.1233 31.1545Z" fill="#FEFEFE"/>
<path fill-rule="evenodd" clip-rule="evenodd" d="M42.7649 33.6829H49.588C49.8638 33.6829 49.8638 33.254 49.588 33.254H42.7649C42.4872 33.254 42.4872 33.6829 42.7649 33.6829Z" fill="#FEFEFE"/>
<path fill-rule="evenodd" clip-rule="evenodd" d="M33.5156 50.453C33.2383 50.453 33.2383 50.0237 33.5156 50.0237H36.2261C36.2647 49.7991 36.2923 49.5735 36.3076 49.3436H34.0315C33.7542 49.3436 33.7557 48.9157 34.0315 48.9157H36.3195C36.3138 48.8014 36.2933 48.4692 36.2594 48.2317H34.3535C34.0763 48.2317 34.0772 47.8024 34.3535 47.8024H36.178C36.137 47.5844 36.0927 47.3583 36.0413 47.1284H34.3764C34.0991 47.1284 34.0991 46.6986 34.3764 46.6986H35.9427C35.8912 46.4735 35.836 46.247 35.7783 46.019H34.2034C33.9271 46.019 33.9271 45.5892 34.2034 45.5892H35.6668C35.6078 45.3607 35.5468 45.1351 35.4877 44.9104H34.0315C33.7542 44.9104 33.7557 44.4811 34.0315 44.4811H35.3701C35.3367 44.3545 35.3005 44.226 35.2667 44.1023C35.2395 44.0014 35.2138 43.9019 35.1876 43.8034H33.86C33.5827 43.8034 33.5827 43.3731 33.86 43.3731H35.0761C35.0161 43.1394 34.9609 42.9123 34.9104 42.6944H33.6871C33.4112 42.6944 33.4112 42.266 33.6871 42.266H34.8146C34.7627 42.0285 34.717 41.8005 34.6765 41.5873H34.6741H33.5156C33.2383 41.5873 33.2383 41.157 33.5156 41.157H34.5969C34.5564 40.9166 34.5212 40.6901 34.4926 40.4792H33.3441C33.0668 40.4792 33.0668 40.0485 33.3441 40.0485H34.4383C34.2335 38.2098 34.4916 37.5873 34.4916 37.5873C34.4916 37.5873 32.4637 38.3202 31.7139 39.9276C30.8246 41.8357 31.6706 47.4521 28.1655 46.7381C25.222 46.1389 26.9483 40.7191 26.0251 37.5787C25.1019 34.4383 21.7049 33.4688 21.7049 33.4688C22.036 35.1622 21.9665 36.0965 21.6568 37.2779H24.0072C24.2845 37.2779 24.2835 37.7077 24.0072 37.7077H21.5368C21.4758 37.9219 21.4063 38.1465 21.3329 38.3859H23.6628C23.9401 38.3859 23.9401 38.8167 23.6628 38.8167H21.1986C21.1324 39.028 21.0628 39.2546 20.9909 39.4945H23.3184C23.5957 39.4945 23.5957 39.9252 23.3184 39.9252H20.8613C20.7989 40.1384 20.7336 40.364 20.6665 40.6025H23.1464C23.4237 40.6025 23.4227 41.0318 23.1464 41.0318H20.5488C20.4888 41.2489 20.4302 41.4745 20.3702 41.711H22.9749C23.2522 41.711 23.2522 42.1413 22.9749 42.1413H20.2635C20.2106 42.3659 20.1639 42.5935 20.1215 42.8191H22.802C23.0807 42.8191 23.0793 43.2493 22.802 43.2493H20.0519C20.021 43.4749 19.991 43.7001 19.9705 43.9271H22.802C23.0807 43.9271 23.0793 44.3579 22.802 44.3579H19.9357C19.9209 44.5844 19.9128 44.811 19.9067 45.0351H22.9749C23.2522 45.0351 23.2522 45.4649 22.9749 45.4649H19.9033C19.9043 45.6939 19.9095 45.9209 19.9176 46.1437H23.1464C23.4237 46.1437 23.4227 46.5744 23.1464 46.5744H19.9405C19.9562 46.8043 19.9738 47.0304 19.9981 47.2517H23.4913C23.7686 47.2517 23.7686 47.6815 23.4913 47.6815H20.0448C20.0353 50.0418 21.1767 52.2098 21.1767 52.2098C22.5224 54.4397 25.2005 55.9614 28.2879 55.9614C32.1317 55.9614 35.3424 53.6025 36.1337 50.453H33.5156Z" fill="#FEFEFE"/>
<path fill-rule="evenodd" clip-rule="evenodd" d="M40.084 45.8307C39.8068 45.8307 39.8077 45.4004 40.084 45.4004H41.9709C41.9852 45.1848 41.9938 44.9578 41.9938 44.7227H40.4284C40.1512 44.7227 40.1526 44.2933 40.4284 44.2933H41.9852C41.9771 44.0739 41.9614 43.8469 41.9385 43.6146H40.5999C40.3227 43.6146 40.3241 43.1839 40.5999 43.1839H41.8894C41.8604 42.9644 41.8256 42.7379 41.7823 42.5066H40.4284C40.1512 42.5066 40.1526 42.0768 40.4284 42.0768H41.696C41.6422 41.8355 41.5808 41.6118 41.516 41.3971H40.2569C39.9797 41.3971 39.9797 40.9673 40.2569 40.9673H41.3745C41.2902 40.7298 41.2016 40.5056 41.1153 40.2852C41.1006 40.2876 41.0863 40.2895 41.0706 40.2895H39.9125C39.6338 40.2895 39.6353 39.8593 39.9125 39.8593H40.9458C40.8571 39.636 40.7705 39.4133 40.6938 39.1815H39.7396C39.4633 39.1815 39.4633 38.7522 39.7396 38.7522H40.5642C40.5042 38.5351 40.4522 38.3109 40.4141 38.0696C40.4046 38.0711 40.3936 38.0734 40.3817 38.0734H39.5681C39.2904 38.0734 39.2918 37.6441 39.5681 37.6441H40.3589C40.3022 37.0468 40.3169 36.3524 40.4418 35.4961C40.4418 35.4961 36.4479 36.3414 35.418 42.7236C35.5094 43.1129 35.6161 43.5294 35.7386 43.9754L35.7481 44.0158C36.0796 45.2262 36.4912 46.7293 36.7023 47.9511C36.7818 48.2681 36.8094 48.9506 36.8094 48.9573V49.0054C36.7952 50.3547 36.3712 51.6203 35.6452 52.7127C38.1166 52.0039 40.083 50.4019 40.7442 49.2714C40.7442 49.2714 41.0768 48.8593 41.3983 48.0473H39.2232C38.9474 48.0473 38.9474 47.6179 39.2232 47.6179H41.5531C41.6217 47.4104 41.6865 47.1839 41.7441 46.9378H39.7396C39.4633 46.9378 39.4633 46.5085 39.7396 46.5085H41.8351C41.8752 46.2962 41.9085 46.0696 41.9337 45.8307H40.084Z" fill="#FEFEFE"/>
<path fill-rule="evenodd" clip-rule="evenodd" d="M53.3049 47.3613C52.9267 46.7017 52.3155 46.1652 51.599 45.8716C50.8835 45.5741 50.0747 45.5241 49.3401 45.7221C48.6065 45.9196 47.95 46.3647 47.5537 46.9682C48.1516 46.5722 48.7937 46.3237 49.4444 46.2495C50.0951 46.1729 50.7482 46.2623 51.3361 46.5075C51.9253 46.7507 52.4503 47.1481 52.8547 47.6621C53.1115 47.9839 53.3144 48.3471 53.4669 48.7478C53.5436 48.6517 53.6217 48.556 53.6974 48.4589C53.635 48.0772 53.5017 47.7031 53.3049 47.3613Z" fill="#FEFEFE"/>
<path fill-rule="evenodd" clip-rule="evenodd" d="M12.13 47.1119C11.3954 46.9143 10.5851 46.9658 9.8696 47.2632C9.1541 47.5574 8.54339 48.0933 8.16516 48.7525C7.92507 49.1699 7.77739 49.6383 7.74023 50.1033C7.80502 50.1761 7.87219 50.2499 7.93936 50.3213C8.09656 49.8491 8.32093 49.4222 8.61532 49.0538C9.01976 48.5393 9.54567 48.1423 10.134 47.8986C10.7218 47.653 11.3749 47.564 12.0256 47.6407C12.6759 47.7154 13.3171 47.9634 13.9164 48.3579C13.5191 47.7563 12.8636 47.3113 12.13 47.1119Z" fill="#FEFEFE"/>
<path fill-rule="evenodd" clip-rule="evenodd" d="M3.68043 15.5996C1.33479 19.8738 0 24.7819 0 29.9989C0 35.205 1.32764 40.1003 3.6609 44.3673C9.74841 42.4126 14.1539 36.7115 14.1539 29.9799C14.1539 23.256 9.75651 17.5606 3.68043 15.5996Z" fill="#F06368"/>
<path fill-rule="evenodd" clip-rule="evenodd" d="M14.8062 15.9081H6.12342C5.8476 15.9081 5.84617 16.3374 6.12342 16.3374H14.8062C15.0834 16.3374 15.0834 15.9081 14.8062 15.9081Z" fill="#FEFEFE"/>
<path fill-rule="evenodd" clip-rule="evenodd" d="M14.952 20.3925H10.465C10.1887 20.3925 10.1887 20.8218 10.465 20.8218H14.952C15.2292 20.8218 15.2302 20.3925 14.952 20.3925Z" fill="#FEFEFE"/>
<path fill-rule="evenodd" clip-rule="evenodd" d="M10.8176 18.3458H2.35106C2.29104 18.4872 2.2334 18.6314 2.1748 18.7747H10.8176C11.0934 18.7747 11.0948 18.3458 10.8176 18.3458Z" fill="#FEFEFE"/>
<path fill-rule="evenodd" clip-rule="evenodd" d="M27.5849 28.3981C28.3485 27.9745 29.5175 27.7022 30.827 27.7022C32.1466 27.7022 33.3213 27.9769 34.0849 28.4067C37.8892 25.102 33.4571 15.054 31.7817 10.964C31.5101 10.3043 30.4945 10.2767 30.1801 10.9207C24.8062 21.9131 25.5336 26.5666 27.5849 28.3981Z" fill="#FEFEFE"/>
<path fill-rule="evenodd" clip-rule="evenodd" d="M38.4709 28.89C38.3832 27.9776 38.0641 27.1309 37.6487 26.3551C37.2466 25.6016 36.7279 24.9229 36.1419 24.3203C36.1519 26.1632 35.7342 27.7506 34.6318 28.7982C34.789 28.8353 34.9515 28.8796 35.1096 28.9286C35.3064 28.9909 35.5012 29.0676 35.6922 29.1471C36.0714 29.3113 36.4301 29.515 36.746 29.762C36.8274 29.8234 36.8984 29.8929 36.9741 29.9576L37.1866 30.1761C37.2357 30.2242 37.2766 30.2732 37.339 30.3175C37.37 30.3403 37.3953 30.3631 37.4324 30.3822C37.4696 30.4027 37.5072 30.4217 37.5453 30.4388C37.5887 30.4555 37.6368 30.4664 37.6835 30.4769C37.7325 30.4845 37.7916 30.4821 37.843 30.4783C37.8959 30.4698 37.9488 30.4493 37.9993 30.4312C38.0445 30.4084 38.0841 30.3798 38.125 30.3498C38.267 30.2251 38.3256 30.0899 38.3761 29.9624C38.418 29.8363 38.4471 29.713 38.4614 29.593C38.4938 29.3522 38.4904 29.118 38.4709 28.89Z" fill="#FEFEFE"/>
<path fill-rule="evenodd" clip-rule="evenodd" d="M30.8148 20.4974C29.9373 20.4974 29.2256 19.7863 29.2256 18.9086C29.2256 18.0314 29.9373 17.3203 30.8148 17.3203C31.6937 17.3203 32.4039 18.0314 32.4039 18.9086C32.4039 19.7863 31.6937 20.4974 30.8148 20.4974Z" fill="#21B2E7"/>
<path fill-rule="evenodd" clip-rule="evenodd" d="M25.4278 24.4199C24.8819 24.9982 24.3965 25.6446 24.0163 26.3547C23.6019 27.132 23.2813 27.9778 23.1941 28.8902C23.1746 29.1191 23.1722 29.3519 23.2037 29.5927C23.218 29.7141 23.2465 29.8378 23.2885 29.9635C23.3404 30.0896 23.398 30.2248 23.5409 30.3509C23.5805 30.3795 23.6214 30.4085 23.6657 30.4328C23.7162 30.4504 23.7691 30.4699 23.8215 30.4785C23.8744 30.4813 23.932 30.4851 23.9801 30.477C24.0283 30.4675 24.0764 30.4556 24.1207 30.4394C24.1578 30.4228 24.1964 30.4037 24.2321 30.3833C24.2707 30.3628 24.2945 30.34 24.326 30.3176C24.3884 30.2728 24.4289 30.2238 24.4784 30.1758L24.6909 29.9587C24.7676 29.894 24.8386 29.824 24.9191 29.7621C25.2344 29.5151 25.5936 29.3124 25.9737 29.1472C26.1633 29.0677 26.3582 28.992 26.5563 28.9287C26.7002 28.884 26.8488 28.8445 26.9932 28.8088C26.0938 27.9449 25.4555 26.5646 25.4278 24.4199Z" fill="#FEFEFE"/>
<path fill-rule="evenodd" clip-rule="evenodd" d="M33.4596 31.0433C33.4596 31.2309 33.4163 31.4151 33.3553 31.5912C33.2939 31.7677 33.2162 31.9381 33.1271 32.1038C32.9495 32.4336 32.7408 32.7454 32.5141 33.0438C32.2868 33.3427 32.0491 33.634 31.7995 33.9143C31.5499 34.1966 31.2955 34.4712 31.024 34.7363L30.9487 34.8092L30.8596 34.7363C30.4552 34.4032 30.0698 34.0524 29.7063 33.6759C29.34 33.3018 28.9989 32.8977 28.7012 32.4503C28.555 32.2247 28.4201 31.9872 28.3196 31.7235C28.2691 31.5926 28.2272 31.4536 28.202 31.3075C28.1891 31.2337 28.1805 31.1571 28.1781 31.0805C28.1767 31.0024 28.1791 30.9362 28.1839 30.8648C28.2177 30.2989 28.4478 29.7478 28.8141 29.3237C28.9056 29.2166 29.0051 29.1185 29.1094 29.0248C29.2176 28.9358 29.3314 28.8558 29.4491 28.7825C29.6882 28.6397 29.9464 28.5307 30.2141 28.4707C30.7505 28.346 31.3146 28.3941 31.8081 28.5964C32.3049 28.7944 32.7251 29.1485 33.0166 29.5793C33.3034 30.0119 33.4635 30.5264 33.4596 31.0433Z" fill="#F7FBFD"/>
<path fill-rule="evenodd" clip-rule="evenodd" d="M90.8286 19.3251C91.5741 20.5669 92.5764 21.506 93.8331 22.1452C95.0897 22.7844 96.4717 23.1047 97.9803 23.1047C99.3513 23.1047 100.585 22.8263 101.681 22.2713C102.778 21.7149 103.7 20.9734 104.446 20.0452L102.093 18.0134C101.59 18.6369 100.981 19.1362 100.265 19.5079C99.5495 19.882 98.7868 20.0681 97.9803 20.0681C97.02 20.0681 96.1716 19.8472 95.4318 19.4055C94.6924 18.9643 94.1151 18.348 93.6964 17.556C93.2772 16.7644 93.0676 15.8748 93.0676 14.8853C93.0676 13.8206 93.2795 12.8872 93.7068 12.0886C94.1332 11.2894 94.7201 10.673 95.467 10.239C96.2125 9.80488 97.05 9.58879 97.9803 9.58879C98.7725 9.58879 99.5252 9.7787 100.242 10.1599C100.958 10.5402 101.574 11.0352 102.093 11.6435L104.446 9.63448C103.592 8.59974 102.599 7.82344 101.465 7.30655C100.33 6.78822 99.1675 6.5293 97.9803 6.5293C96.2578 6.5293 94.7763 6.89912 93.5353 7.63686C92.2944 8.37508 91.346 9.37556 90.6919 10.6383C90.0364 11.9025 89.7087 13.318 89.7087 14.8853C89.7087 16.605 90.0817 18.0852 90.8286 19.3251ZM83.6986 16.9626L81.5283 10.5927H81.483L79.3351 16.9626H83.6986ZM79.9524 6.73458H83.036L89.0921 22.944H85.7322L84.6361 19.7022H78.3981L77.3019 22.944H73.9421L79.9524 6.73458ZM68.4584 22.9446H71.6805V6.7352H68.4584V22.9446ZM71.1953 53.2409C71.9008 53.2409 72.4629 53.1033 72.8793 52.8272C73.2961 52.5517 73.5038 52.1471 73.5038 51.6121C73.5038 51.07 73.309 50.6469 72.9202 50.3446C72.5301 50.041 71.9742 49.8901 71.2491 49.8901H69.186V53.2409H71.1953ZM71.141 48.8311C71.666 48.8311 72.1171 48.7054 72.4915 48.4512C72.8674 48.1975 73.056 47.8044 73.056 47.2718C73.056 46.2751 72.3405 45.7773 70.9095 45.7773H69.186V48.8311H71.141ZM68.0032 44.693H71.1543C72.1328 44.693 72.895 44.8848 73.4438 45.2689C73.9911 45.654 74.2646 46.2428 74.2646 47.0405C74.2646 47.5283 74.135 47.9738 73.8768 48.3765C73.6186 48.7797 73.2418 49.0662 72.7435 49.239V49.2651C73.3318 49.3922 73.812 49.663 74.1826 50.0795C74.5537 50.4955 74.74 51.0429 74.74 51.7216C74.74 52.5084 74.4689 53.139 73.9249 53.614C73.3823 54.09 72.5806 54.3265 71.5216 54.3265H68.0032V44.693ZM81.0416 46.1307L82.8075 50.9484H79.2629L81.014 46.1307H81.0416ZM81.6118 44.6924H80.4304L76.7767 54.3273H78.0262L78.8822 51.9798H83.1877L84.0427 54.3273H85.2923L81.6118 44.6924ZM87.9131 44.693H89.0954V49.9843H89.1207L93.5081 44.693H95.0158L91.2815 49.0752L95.1239 54.3261H93.6448L90.5069 50.0381H90.4664L89.0954 51.6669V54.3261H87.9131V44.693ZM98.1053 52.556C98.4173 53.1581 98.8546 53.6164 99.4162 53.933C99.9779 54.25 100.625 54.408 101.358 54.408C102.118 54.408 102.781 54.2485 103.347 53.9258C103.913 53.6065 104.348 53.1438 104.652 52.5431C104.954 51.9406 105.107 51.2285 105.107 50.4046V44.6931H103.925V50.3242C103.925 51.2371 103.69 51.9591 103.219 52.4879C102.748 53.0182 102.127 53.2818 101.358 53.2818C100.588 53.2818 99.9731 53.0129 99.511 52.4751C99.0489 51.9363 98.8184 51.219 98.8184 50.3242V44.6931H97.637V50.4046C97.637 51.2371 97.7932 51.9544 98.1053 52.556ZM75.4705 37.2933V39.5113H67.4499L67.4142 37.9192L71.2451 33.8763C72.2298 32.8211 72.8924 31.9806 72.8924 30.9967C72.8924 30.0486 72.2122 29.3328 71.2451 29.3328C70.3862 29.3328 69.6522 29.7626 69.1148 30.6569L67.3604 29.4046C68.0768 28.0991 69.3835 27.0791 71.4424 27.0791C73.4831 27.0791 75.3452 28.4384 75.3452 30.7283C75.3452 32.1238 74.8975 33.2152 73.3045 34.8606L70.9769 37.2576V37.2933H75.4705ZM81.9167 29.3511C83.3672 29.3511 84.2085 30.8895 84.2085 33.3759C84.2085 35.9694 83.3491 37.4006 81.9167 37.4006C80.4671 37.4006 79.6072 35.8447 79.6072 33.3759C79.6072 30.7643 80.5028 29.3511 81.9167 29.3511ZM81.899 27.0794C78.927 27.0794 77.1192 29.6191 77.1192 33.3759C77.1192 37.3469 79.0704 39.6543 81.899 39.6543C84.8887 39.6543 86.697 37.1327 86.697 33.3759C86.697 29.4045 84.7634 27.0794 81.899 27.0794ZM96.277 37.2933V39.5113H88.2564L88.2206 37.9192L92.0516 33.8763C93.0363 32.8211 93.6989 31.9806 93.6989 30.9967C93.6989 30.0486 93.0186 29.3328 92.0516 29.3328C91.1927 29.3328 90.4586 29.7626 89.9213 30.6569L88.1668 29.4046C88.8833 28.0991 90.19 27.0791 92.2488 27.0791C94.2896 27.0791 96.1517 28.4384 96.1517 30.7283C96.1517 32.1238 95.7039 33.2152 94.1109 34.8606L91.7834 37.2576V37.2933H96.277ZM101.846 39.6545C104.227 39.6545 106 38.2951 106 36.1661C106 34.7354 105.23 33.7159 104.048 33.1614V33.1252C105.033 32.5531 105.642 31.5512 105.642 30.3703C105.642 28.2599 103.869 27.079 101.685 27.079C99.8765 27.079 98.4627 27.9915 97.8896 29.2613L99.8408 30.2994C100.199 29.673 100.736 29.2794 101.631 29.2794C102.544 29.2794 103.261 29.8696 103.261 30.7639C103.261 31.5693 102.759 32.2128 101.667 32.2128H100.575V34.1985H101.47C102.813 34.1985 103.493 34.9496 103.493 35.8263C103.493 36.8639 102.652 37.4722 101.667 37.4722C100.557 37.4722 99.8765 36.9534 99.5545 36.0771L97.4418 36.9534C98.0325 38.5098 99.6617 39.6545 101.846 39.6545Z" fill="#5E6168"/>
</svg>
