<svg width="20" height="20" viewBox="0 0 20 20" fill="none" xmlns="http://www.w3.org/2000/svg">
<path d="M4.16634 2.07222H4.16632C3.85743 2.07226 3.5593 2.18567 3.32847 2.39092C3.09765 2.59618 2.95018 2.87902 2.91404 3.18578L2.91379 3.18575L2.91328 3.19438L2.9055 3.32438L2.90523 3.32436V3.33333V16.6667C2.90527 16.9756 3.01867 17.2737 3.22393 17.5045C3.42919 17.7354 3.71202 17.8828 4.01879 17.919L4.01876 17.9192L4.02738 17.9197L4.15738 17.9275L4.15737 17.9278H4.16634H9.16617C9.41114 17.9281 9.64676 18.0219 9.82489 18.19C10.003 18.3582 10.1102 18.588 10.1246 18.8326C10.1389 19.0771 10.0594 19.3179 9.90213 19.5058C9.74581 19.6925 9.52445 19.8129 9.28283 19.8428L9.16188 19.85H4.16634C3.35436 19.85 2.57306 19.5398 1.98229 18.9828C1.39206 18.4262 1.0366 17.6654 0.988438 16.8557L0.983008 16.6645V3.33333V3.33333C0.982963 2.52135 1.2932 1.74005 1.85024 1.14928C2.40676 0.559057 3.16761 0.203589 3.97734 0.15543L4.16847 0.15H9.72181C9.96675 0.150291 10.2023 0.24409 10.3804 0.412238C10.5586 0.580402 10.6658 0.810238 10.6801 1.05479C10.6945 1.29933 10.6149 1.54013 10.4577 1.72798C10.3014 1.91475 10.08 2.03517 9.83839 2.06498L9.71741 2.07222H4.16634ZM14.5979 12.4628L14.598 12.4627L15.8435 11.2172L16.0996 10.9611H15.7375H9.7219C9.46699 10.9611 9.22253 10.8599 9.04229 10.6796C8.86205 10.4994 8.76079 10.2549 8.76079 10C8.76079 9.7451 8.86205 9.50064 9.04229 9.32039C9.22253 9.14015 9.46699 9.03889 9.7219 9.03889H15.7375H16.0996L15.8435 8.78282L14.598 7.53727L14.5979 7.53723C14.4176 7.35701 14.3162 7.11253 14.3161 6.85756C14.316 6.6026 14.4172 6.35805 14.5974 6.1777C14.7777 5.99735 15.0222 5.89598 15.2771 5.89589C15.532 5.8958 15.7766 5.99697 15.9569 6.17716C15.9569 6.17718 15.957 6.1772 15.957 6.17721L19.0991 9.32049L19.2052 9.21445L19.0991 9.32049C19.2793 9.50073 19.3805 9.74515 19.3805 10C19.3805 10.2549 19.2793 10.4993 19.0991 10.6795L19.2052 10.7856L19.0991 10.6795L15.957 13.8228C15.957 13.8228 15.957 13.8228 15.957 13.8228C15.9569 13.8228 15.9569 13.8228 15.9569 13.8228C15.7766 14.003 15.532 14.1042 15.2771 14.1041C15.0222 14.104 14.7777 14.0027 14.5974 13.8223C14.4172 13.642 14.316 13.3974 14.3161 13.1424C14.3162 12.8875 14.4176 12.643 14.5979 12.4628Z" fill="black" stroke="white" stroke-width="0.3"/>
</svg>
