<svg width="20" height="16" viewBox="0 0 20 16" fill="none" xmlns="http://www.w3.org/2000/svg">
<path fill-rule="evenodd" clip-rule="evenodd" d="M2.35702 7.67577C2.26075 7.81251 2.18081 7.93435 2.11667 8.0367C2.18081 8.13904 2.26075 8.26089 2.35702 8.39762C2.6697 8.84175 3.14858 9.43449 3.80913 10.0252C5.12574 11.2027 7.13149 12.3486 10 12.3486C12.8685 12.3486 14.8743 11.2027 16.1909 10.0252C16.8514 9.43449 17.3303 8.84175 17.643 8.39762C17.7392 8.26089 17.8192 8.13904 17.8833 8.0367C17.8192 7.93435 17.7392 7.81251 17.643 7.67577C17.3303 7.23164 16.8514 6.6389 16.1909 6.04815C14.8743 4.87068 12.8685 3.72477 10 3.72477C7.13149 3.72477 5.12574 4.87068 3.80913 6.04815C3.14858 6.6389 2.6697 7.23164 2.35702 7.67577ZM19.9188 8.37717C19.919 8.37678 19.9191 8.37641 19 8.0367L19.9188 8.37717C20.0266 8.16024 20.027 7.91392 19.9191 7.69699L19 8.0367C19.9191 7.69699 19.9193 7.69738 19.9191 7.69699L19.9183 7.69535L19.9173 7.69323L19.9144 7.68757L19.9058 7.67068C19.8987 7.65698 19.889 7.63846 19.8766 7.61543C19.8518 7.56937 19.8162 7.50522 19.7696 7.42555C19.6763 7.26635 19.5383 7.04442 19.3526 6.78065C18.9822 6.2546 18.4164 5.55376 17.6306 4.85093C16.0543 3.44125 13.5601 2 10 2C6.43994 2 3.94569 3.44125 2.36944 4.85093C1.58356 5.55376 1.0178 6.2546 0.647445 6.78065C0.461748 7.04442 0.323696 7.26635 0.230449 7.42555C0.183788 7.50522 0.148232 7.56937 0.123439 7.61543C0.111039 7.63846 0.10132 7.65698 0.0942391 7.67068L0.0855879 7.68757L0.0827339 7.69323L0.0816728 7.69535C0.0814786 7.69574 0.0808549 7.69699 0.999965 8.03668L0.080855 7.69699C-0.0269517 7.91392 -0.0269517 8.15948 0.080855 8.37641L0.999965 8.03668C0.0808549 8.37638 0.0806607 8.37602 0.080855 8.37641L0.0816728 8.37805L0.0827339 8.38017L0.0855879 8.38583L0.0942391 8.40271C0.10132 8.41641 0.111039 8.43494 0.123439 8.45797C0.148232 8.50402 0.183788 8.56817 0.230449 8.64784C0.323696 8.80705 0.461748 9.02898 0.647445 9.29274C1.0178 9.8188 1.58356 10.5196 2.36944 11.2225C3.94569 12.6321 6.43994 14.0734 10 14.0734C13.5601 14.0734 16.0543 12.6321 17.6306 11.2225C18.4164 10.5196 18.9822 9.8188 19.3526 9.29274C19.5383 9.02898 19.6763 8.80705 19.7696 8.64784C19.8162 8.56817 19.8518 8.50402 19.8766 8.45797C19.889 8.43494 19.8987 8.41641 19.9058 8.40271L19.9144 8.38583L19.9173 8.38017L19.9188 8.37717ZM10 9.76147C8.89543 9.76147 8 8.98926 8 8.0367C8 7.08413 8.89543 6.31193 10 6.31193C11.1046 6.31193 12 7.08413 12 8.0367C12 8.98926 11.1046 9.76147 10 9.76147ZM6 8.0367C6 6.13157 7.79086 4.58716 10 4.58716C12.2091 4.58716 14 6.13157 14 8.0367C14 9.94183 12.2091 11.4862 10 11.4862C7.79086 11.4862 6 9.94183 6 8.0367Z" fill="#B1B1B1"/>
<path d="M3.64637 3.41429L14.5857 14.3536C15.1715 14.9394 16.1212 14.9394 16.707 14.3536C17.2928 13.7678 17.2928 12.8181 16.707 12.2323L5.76769 1.29297C5.1819 0.707182 4.23216 0.707182 3.64637 1.29297C3.06058 1.87876 3.06058 2.8285 3.64637 3.41429Z" fill="#B1B1B1" stroke="white" stroke-width="1.5"/>
</svg>
