<svg width="20" height="13" viewBox="0 0 20 13" fill="none" xmlns="http://www.w3.org/2000/svg">
<path fill-rule="evenodd" clip-rule="evenodd" d="M2.35702 5.67577C2.26075 5.81251 2.18081 5.93435 2.11667 6.0367C2.18081 6.13904 2.26075 6.26089 2.35702 6.39762C2.6697 6.84175 3.14858 7.43449 3.80913 8.02524C5.12574 9.20272 7.13149 10.3486 10 10.3486C12.8685 10.3486 14.8743 9.20272 16.1909 8.02524C16.8514 7.43449 17.3303 6.84175 17.643 6.39762C17.7392 6.26089 17.8192 6.13904 17.8833 6.0367C17.8192 5.93435 17.7392 5.81251 17.643 5.67577C17.3303 5.23164 16.8514 4.6389 16.1909 4.04815C14.8743 2.87068 12.8685 1.72477 10 1.72477C7.13149 1.72477 5.12574 2.87068 3.80913 4.04815C3.14858 4.6389 2.6697 5.23164 2.35702 5.67577ZM19.9188 6.37717C19.919 6.37678 19.9191 6.37641 19 6.0367L19.9188 6.37717C20.0266 6.16024 20.027 5.91392 19.9191 5.69699L19 6.0367C19.9191 5.69699 19.9193 5.69738 19.9191 5.69699L19.9183 5.69535L19.9173 5.69323L19.9144 5.68757L19.9058 5.67068C19.8987 5.65698 19.889 5.63846 19.8766 5.61543C19.8518 5.56937 19.8162 5.50522 19.7696 5.42555C19.6763 5.26635 19.5383 5.04441 19.3526 4.78065C18.9822 4.2546 18.4164 3.55376 17.6306 2.85093C16.0543 1.44125 13.5601 0 10 0C6.43994 0 3.94569 1.44125 2.36944 2.85093C1.58356 3.55376 1.0178 4.2546 0.647445 4.78065C0.461748 5.04441 0.323696 5.26635 0.230449 5.42555C0.183788 5.50522 0.148232 5.56937 0.123439 5.61543C0.111039 5.63846 0.10132 5.65698 0.0942391 5.67068L0.0855879 5.68757L0.0827339 5.69323L0.0816728 5.69535C0.0814786 5.69574 0.0808549 5.69699 0.999965 6.03668L0.080855 5.69699C-0.0269517 5.91392 -0.0269517 6.15948 0.080855 6.37641L0.999965 6.03668C0.0808549 6.37638 0.0806607 6.37602 0.080855 6.37641L0.0816728 6.37805L0.0827339 6.38017L0.0855879 6.38583L0.0942391 6.40271C0.10132 6.41641 0.111039 6.43494 0.123439 6.45797C0.148232 6.50402 0.183788 6.56817 0.230449 6.64784C0.323696 6.80705 0.461748 7.02898 0.647445 7.29274C1.0178 7.8188 1.58356 8.51964 2.36944 9.22247C3.94569 10.6321 6.43994 12.0734 10 12.0734C13.5601 12.0734 16.0543 10.6321 17.6306 9.22247C18.4164 8.51964 18.9822 7.8188 19.3526 7.29274C19.5383 7.02898 19.6763 6.80705 19.7696 6.64784C19.8162 6.56817 19.8518 6.50402 19.8766 6.45797C19.889 6.43494 19.8987 6.41641 19.9058 6.40271L19.9144 6.38583L19.9173 6.38017L19.9188 6.37717ZM10 7.76147C8.89543 7.76147 8 6.98926 8 6.0367C8 5.08413 8.89543 4.31193 10 4.31193C11.1046 4.31193 12 5.08413 12 6.0367C12 6.98926 11.1046 7.76147 10 7.76147ZM6 6.0367C6 4.13157 7.79086 2.58716 10 2.58716C12.2091 2.58716 14 4.13157 14 6.0367C14 7.94183 12.2091 9.48624 10 9.48624C7.79086 9.48624 6 7.94183 6 6.0367Z" fill="#B1B1B1"/>
</svg>
