<svg width="104" height="36" viewBox="0 0 104 36" fill="none" xmlns="http://www.w3.org/2000/svg">
<g clip-path="url(#clip0_1257_1660)">
<path d="M16.6107 22.0413C16.6107 20.9497 15.8914 19.2169 14.162 19.2169C12.4325 19.2169 11.7663 20.4422 11.7663 21.6676V30.139C9.856 30.139 8.30537 28.5891 8.30537 26.6753V21.6676C8.30537 20.4422 7.58607 19.2169 5.8566 19.2169C4.12714 19.2169 3.4609 20.9477 3.4609 22.0413V27.4758C3.4609 28.9471 2.26993 30.139 0.799878 30.139H0V21.8269C0 18.9494 2.13039 16.418 5.8566 16.418C7.61358 16.418 9.05022 16.9766 10.0348 17.8558C11.0195 16.9766 12.403 16.418 14.16 16.418C17.9393 16.418 20.0697 18.9494 20.0697 21.8269V30.139H19.2718C17.8017 30.139 16.6107 28.9471 16.6107 27.4758V22.0413Z" fill="#2C2C2C"/>
<path d="M28.988 16.4199C33.2213 16.4199 36.0415 19.2168 36.0415 23.4535C36.0415 27.6902 33.2193 30.5402 28.988 30.5402C24.7567 30.5402 21.9346 27.6902 21.9346 23.4535C21.9346 19.2168 24.7567 16.4199 28.988 16.4199ZM28.988 27.7413C31.0379 27.7413 32.4489 26.0105 32.4489 23.4791C32.4489 20.9477 31.0379 19.2168 28.988 19.2168C26.9382 19.2168 25.5271 20.9477 25.5271 23.4791C25.5271 26.0105 26.9382 27.7413 28.988 27.7413Z" fill="#2C2C2C"/>
<path d="M47.7278 22.9205C47.7278 20.9497 46.8238 19.2168 44.5342 19.2168C42.2447 19.2168 41.3662 20.9477 41.3662 22.9205V27.4758C41.3662 29.0749 40.301 30.1409 38.7051 30.1409H37.9072V22.7081C37.9072 19.2188 40.3029 16.4219 44.5362 16.4219C48.7695 16.4219 51.1907 19.2188 51.1907 22.7081V30.1409H50.3928C48.795 30.1409 47.7318 29.0749 47.7318 27.4758V22.9205H47.7278Z" fill="#2C2C2C"/>
<path d="M53.584 30.1398V12.8233C53.584 11.3521 54.775 10.1602 56.245 10.1602H57.0429V21.4029L62.367 16.8201H66.4666L60.8242 21.6684L61.0895 21.4816L66.4666 30.1398H65.1616C63.5638 30.1398 61.9149 29.2606 61.062 27.9015L58.399 23.7455L57.041 24.9177V26.6761C57.041 28.588 55.4923 30.1398 53.5801 30.1398H53.584Z" fill="#2C2C2C"/>
<path d="M69.5288 10.6914C70.8063 10.6914 71.6592 11.5431 71.6592 12.8235C71.6592 14.104 70.8082 14.9537 69.5288 14.9537C68.2494 14.9537 67.4004 14.102 67.4004 12.8235C67.4004 11.545 68.2258 10.6914 69.5288 10.6914ZM71.2583 30.14H67.7974V16.8183H68.5953C70.1931 16.8183 71.2563 17.8843 71.2563 19.4814V30.1381L71.2583 30.14Z" fill="#2C2C2C"/>
<path d="M79.137 16.4199C81.1869 16.4199 82.6766 16.9529 83.5826 18.3121V16.8212H87.0435V29.5017C87.0435 33.6302 84.6478 36.0023 80.8154 36.0023H74.2945C74.2945 34.4032 75.4383 33.3391 77.1423 33.3391H79.5655C82.1479 33.3391 83.5845 31.3939 83.5845 28.8625V27.9833C82.653 29.4486 81.1082 30.0072 79.1115 30.0072C75.8648 30.0072 73.0957 27.2634 73.0957 23.188C73.0957 19.1126 75.8648 16.4219 79.139 16.4219L79.137 16.4199ZM80.1492 27.2083C82.199 27.2083 83.5826 25.5837 83.5826 23.2116C83.5826 20.8395 82.199 19.2149 80.1492 19.2149C78.0994 19.2149 76.6883 20.8395 76.6883 23.2116C76.6883 25.5837 78.0994 27.2083 80.1492 27.2083Z" fill="#2C2C2C"/>
<path d="M95.9343 16.4199C100.168 16.4199 102.988 19.2168 102.988 23.4535C102.988 27.6902 100.166 30.5402 95.9343 30.5402C91.703 30.5402 88.8809 27.6902 88.8809 23.4535C88.8809 19.2168 91.703 16.4199 95.9343 16.4199ZM95.9343 27.7413C97.9841 27.7413 99.3952 26.0105 99.3952 23.4791C99.3952 20.9477 97.9841 19.2168 95.9343 19.2168C93.8845 19.2168 92.4734 20.9477 92.4734 23.4791C92.4734 26.0105 93.8845 27.7413 95.9343 27.7413Z" fill="#2C2C2C"/>
<path d="M73.1406 15.151C73.1406 6.7838 79.919 0 88.2794 0C96.6398 0 103.418 6.7838 103.418 15.151" fill="#FFD05C"/>
</g>
<defs>
<clipPath id="clip0_1257_1660">
<rect width="103.418" height="36" fill="white"/>
</clipPath>
</defs>
</svg>
