<svg width="135" height="136" fill="none" xmlns="http://www.w3.org/2000/svg"><path fill-rule="evenodd" clip-rule="evenodd" d="M87.362 52.692a4.218 4.218 0 010 5.973L62.05 83.978a4.22 4.22 0 01-5.974 0L43.42 71.322a4.224 4.224 0 015.974-5.974l9.669 9.678 22.326-22.334a4.22 4.22 0 015.973 0z" fill="#274DE0"/><path d="M86.68 22.027l-7.77-7.967 6.033-5.89 5.249 5.375 7.51-.092a24.386 24.386 0 0124.674 24.673l-.085 7.51 5.367 5.25a24.392 24.392 0 015.432 26.903 24.393 24.393 0 01-5.432 7.98l-5.375 5.249.093 7.51a24.404 24.404 0 01-7.141 17.533 24.383 24.383 0 01-17.533 7.141l-7.51-.085-5.249 5.367a24.38 24.38 0 01-26.904 5.433 24.38 24.38 0 01-7.98-5.433l-5.249-5.375-7.51.093a24.402 24.402 0 01-17.533-7.141 24.399 24.399 0 01-7.14-17.533l.084-7.51-5.367-5.249a24.387 24.387 0 010-34.884l5.375-5.249-.093-7.51A24.388 24.388 0 0137.3 13.453l7.51.085 5.249-5.367a24.387 24.387 0 0134.884 0l-6.033 5.89a15.947 15.947 0 00-22.818 0l-7.763 7.966-11.139-.135a15.947 15.947 0 00-16.125 16.134l.135 11.122-7.966 7.771a15.948 15.948 0 000 22.818L21.2 87.5l-.135 11.139a15.95 15.95 0 0016.134 16.125l11.122-.135 7.771 7.966a15.943 15.943 0 0011.409 4.804 15.949 15.949 0 0011.409-4.804l7.763-7.966 11.139.135a15.938 15.938 0 0011.458-4.673 15.955 15.955 0 004.667-11.46l-.135-11.123 7.966-7.771a15.944 15.944 0 003.554-17.598 15.943 15.943 0 00-3.554-5.22l-7.966-7.763.135-11.138a15.935 15.935 0 00-4.673-11.459 15.946 15.946 0 00-11.46-4.667l-11.123.135z" fill="#274DE0"/></svg>