<svg width="14" height="14" viewBox="0 0 14 14" fill="none" xmlns="http://www.w3.org/2000/svg">
<path d="M13.295 1.91334C13.6844 1.52398 13.6844 0.892701 13.295 0.50334V0.50334C12.9056 0.113979 12.2744 0.113979 11.885 0.50334L7.70711 4.68123C7.31658 5.07176 6.68342 5.07176 6.29289 4.68123L2.115 0.50334C1.72564 0.113979 1.09436 0.113979 0.705 0.50334V0.50334C0.315639 0.892701 0.315639 1.52398 0.705 1.91334L4.88289 6.09123C5.27342 6.48176 5.27342 7.11492 4.88289 7.50545L0.705 11.6833C0.315639 12.0727 0.315639 12.704 0.705 13.0933V13.0933C1.09436 13.4827 1.72564 13.4827 2.115 13.0933L6.29289 8.91545C6.68342 8.52492 7.31658 8.52492 7.70711 8.91545L11.885 13.0933C12.2744 13.4827 12.9056 13.4827 13.295 13.0933V13.0933C13.6844 12.704 13.6844 12.0727 13.295 11.6833L9.11711 7.50545C8.72658 7.11492 8.72658 6.48176 9.11711 6.09123L13.295 1.91334Z" fill="#101010"/>
</svg>
