<svg width="30" height="24" viewBox="0 0 30 24" fill="none" xmlns="http://www.w3.org/2000/svg">
<g clip-path="url(#clip0_2262_35441)">
<path d="M15 0C9.75998 0 5.31998 3.36 3.67998 8H26.32C24.68 3.36 20.24 0 15 0Z" fill="#2B92DE"/>
<path d="M15 24C20.24 24 24.68 20.68 26.32 16H3.67998C5.31998 20.68 9.75998 24 15 24Z" fill="#4D9B08"/>
<path d="M3.67998 8C3.23998 9.24 3 10.6 3 12C3 13.4 3.23998 14.76 3.67998 16H26.32C26.76 14.76 27 13.4 27 12C27 10.6 26.76 9.24 26.32 8H3.67998Z" fill="#ED4C5C"/>
<path d="M14.863 14.05C13.7424 14.05 12.821 13.125 12.821 12C12.821 10.875 13.7424 9.95 14.863 9.95C15.137 9.95 15.386 10 15.6101 10.1C15.2117 9.8 14.7136 9.6 14.1658 9.6C12.8459 9.6 11.8 10.675 11.8 12C11.8 13.325 12.8708 14.4 14.1658 14.4C14.7136 14.4 15.2117 14.225 15.6101 13.9C15.386 14 15.137 14.05 14.863 14.05ZM17.0545 12.35L16.5066 12.725L16.8553 12.15L16.2078 12L16.8553 11.85L16.4817 11.3L17.0545 11.65L17.2039 11L17.3533 11.65L17.9012 11.275L17.5525 11.85L18.2 12L17.5525 12.15L17.9261 12.7L17.3533 12.35L17.2039 13L17.0545 12.35Z" fill="white"/>
<rect width="30" height="8.25" fill="#2B92DE"/>
<rect y="15.75" width="30" height="8.25" fill="#4D9B08"/>
<rect x="21.5625" y="8.25" width="8.4375" height="7.5" fill="#ED4C5C"/>
<rect y="8.25" width="8.4375" height="7.5" fill="#ED4C5C"/>
</g>
<defs>
<clipPath id="clip0_2262_35441">
<rect width="30" height="24" rx="4" fill="white"/>
</clipPath>
</defs>
</svg>
