<svg width="19" height="22" viewBox="0 0 19 22" fill="none" xmlns="http://www.w3.org/2000/svg">
<path fill-rule="evenodd" clip-rule="evenodd" d="M12.9218 3.52551C12.093 4.44917 10.7668 5.17769 9.44069 5.07361C9.27492 3.82472 9.92418 2.49778 10.684 1.6782C11.5128 0.728519 12.9633 0.0520371 14.1375 0C14.2756 1.30093 13.7369 2.57583 12.9218 3.52551ZM14.1236 5.32079C12.2035 5.21672 10.5596 6.34852 9.6479 6.34852C8.72236 6.34852 7.32715 5.37283 5.8076 5.39885C3.8322 5.42486 1.99493 6.47861 0.986508 8.15681C-1.0856 11.5132 0.447761 16.4827 2.45079 19.2147C3.43159 20.5676 4.60578 22.0507 6.15295 21.9987C7.61724 21.9466 8.19743 21.101 9.96563 21.101C11.7476 21.101 12.2588 21.9987 13.8059 21.9726C15.4084 21.9466 16.4168 20.6197 17.3976 19.2667C18.5165 17.7316 18.9724 16.2356 19 16.1575C18.9724 16.1315 15.9057 15.0257 15.878 11.6953C15.8504 8.91135 18.2955 7.5844 18.406 7.50635C17.0246 5.58098 14.8696 5.37283 14.1236 5.32079Z" fill="#2C2C2C"/>
</svg>
