<svg width="19" height="20" viewBox="0 0 19 20" fill="none" xmlns="http://www.w3.org/2000/svg">
<path d="M18.8152 8.13942H18.05V8.1H9.5V11.9H14.8689C14.0857 14.1121 11.9809 15.7 9.5 15.7C6.35217 15.7 3.8 13.1478 3.8 10C3.8 6.85217 6.35217 4.3 9.5 4.3C10.953 4.3 12.275 4.84815 13.2815 5.74352L15.9685 3.05645C14.2718 1.47517 12.0023 0.5 9.5 0.5C4.25362 0.5 0 4.75362 0 10C0 15.2464 4.25362 19.5 9.5 19.5C14.7464 19.5 19 15.2464 19 10C19 9.36302 18.9345 8.74125 18.8152 8.13942Z" fill="#FFC107"/>
<path d="M1.09536 5.57822L4.21659 7.86725C5.06114 5.7763 7.10647 4.3 9.5 4.3C10.953 4.3 12.275 4.84815 13.2815 5.74352L15.9685 3.05645C14.2718 1.47517 12.0023 0.5 9.5 0.5C5.85105 0.5 2.68661 2.56007 1.09536 5.57822Z" fill="#FF3D00"/>
<path d="M9.5 19.5C11.9538 19.5 14.1835 18.5609 15.8693 17.0338L12.9291 14.5458C11.9432 15.2955 10.7385 15.701 9.5 15.7C7.02905 15.7 4.93101 14.1244 4.14061 11.9257L1.04266 14.3125C2.61491 17.3891 5.80782 19.5 9.5 19.5Z" fill="#4CAF50"/>
<path d="M18.8152 8.13942H18.05V8.1H9.5V11.9H14.8689C14.4942 12.9528 13.8193 13.8728 12.9276 14.5462L12.9291 14.5458L15.8693 17.0338C15.6613 17.2229 19 14.75 19 10C19 9.36302 18.9345 8.74125 18.8152 8.13942Z" fill="#1976D2"/>
</svg>
