<svg width="20" height="20" viewBox="0 0 20 20" fill="none" xmlns="http://www.w3.org/2000/svg">
<path d="M15.0004 20C16.3265 20 17.5983 19.4732 18.536 18.5355C19.4736 17.5979 20.0004 16.3261 20.0004 15C20.0004 13.6739 19.4736 12.4021 18.536 11.4645C17.5983 10.5268 16.3265 10 15.0004 10C13.6743 10 12.4026 10.5268 11.4649 11.4645C10.5272 12.4021 10.0004 13.6739 10.0004 15C10.0004 16.3261 10.5272 17.5979 11.4649 18.5355C12.4026 19.4732 13.6743 20 15.0004 20V20ZM15.7147 12.8571V14.2857H17.1433C17.3327 14.2857 17.5144 14.361 17.6484 14.4949C17.7823 14.6289 17.8576 14.8106 17.8576 15C17.8576 15.1894 17.7823 15.3711 17.6484 15.5051C17.5144 15.639 17.3327 15.7143 17.1433 15.7143H15.7147V17.1429C15.7147 17.3323 15.6394 17.514 15.5055 17.6479C15.3715 17.7819 15.1899 17.8571 15.0004 17.8571C14.811 17.8571 14.6293 17.7819 14.4953 17.6479C14.3614 17.514 14.2861 17.3323 14.2861 17.1429V15.7143H12.8576C12.6681 15.7143 12.4864 15.639 12.3525 15.5051C12.2185 15.3711 12.1433 15.1894 12.1433 15C12.1433 14.8106 12.2185 14.6289 12.3525 14.4949C12.4864 14.361 12.6681 14.2857 12.8576 14.2857H14.2861V12.8571C14.2861 12.6677 14.3614 12.486 14.4953 12.3521C14.6293 12.2181 14.811 12.1429 15.0004 12.1429C15.1899 12.1429 15.3715 12.2181 15.5055 12.3521C15.6394 12.486 15.7147 12.6677 15.7147 12.8571ZM12.8576 4.28571C12.8576 5.42236 12.406 6.51244 11.6023 7.31617C10.7986 8.1199 9.70849 8.57143 8.57185 8.57143C7.4352 8.57143 6.34512 8.1199 5.54139 7.31617C4.73766 6.51244 4.28613 5.42236 4.28613 4.28571C4.28613 3.14907 4.73766 2.05898 5.54139 1.25526C6.34512 0.451529 7.4352 0 8.57185 0C9.70849 0 10.7986 0.451529 11.6023 1.25526C12.406 2.05898 12.8576 3.14907 12.8576 4.28571V4.28571Z" fill="#274DE0"/>
<path d="M0 15.7143C0 17.1429 1.42857 17.1429 1.42857 17.1429H8.93714C8.69429 16.4546 8.57061 15.7299 8.57143 15C8.57049 14.0812 8.76693 13.173 9.14748 12.3367C9.52803 11.5004 10.0838 10.7557 10.7771 10.1529C10.11 10.0543 9.37714 10 8.57143 10C1.42857 10 0 14.2857 0 15.7143Z" fill="#274DE0"/>
</svg>
