<svg width="158" height="55" viewBox="0 0 158 55" fill="none" xmlns="http://www.w3.org/2000/svg">
<g clip-path="url(#clip0_1257_3334)">
<path d="M25.3775 33.6732C25.3775 32.0055 24.2786 29.3581 21.6364 29.3581C18.9941 29.3581 17.9762 31.2302 17.9762 33.1023V46.0447C15.0578 46.0447 12.6888 43.6768 12.6888 40.753V33.1023C12.6888 31.2302 11.5898 29.3581 8.94759 29.3581C6.30535 29.3581 5.28748 32.0025 5.28748 33.6732V41.976C5.28748 44.2237 3.46794 46.0447 1.22204 46.0447H0V33.3457C0 28.9494 3.25476 25.082 8.94759 25.082C11.6319 25.082 13.8267 25.9354 15.331 27.2787C16.8353 25.9354 18.9491 25.082 21.6334 25.082C27.4072 25.082 30.662 28.9494 30.662 33.3457V46.0447H29.443C27.1971 46.0447 25.3775 44.2237 25.3775 41.976V33.6732V33.6732Z" fill="#2C2C2C"/>
<path d="M44.2879 25.0859C50.7553 25.0859 55.064 29.359 55.064 35.8317C55.064 42.3044 50.7523 46.6586 44.2879 46.6586C37.8234 46.6586 33.5117 42.3044 33.5117 35.8317C33.5117 29.359 37.8234 25.0859 44.2879 25.0859V25.0859ZM44.2879 42.3826C47.4195 42.3826 49.5753 39.7382 49.5753 35.8708C49.5753 32.0034 47.4195 29.359 44.2879 29.359C41.1562 29.359 39.0004 32.0034 39.0004 35.8708C39.0004 39.7382 41.1562 42.3826 44.2879 42.3826Z" fill="#2C2C2C"/>
<path d="M72.9168 35.0173C72.9168 32.0063 71.5356 29.3589 68.0377 29.3589C64.5397 29.3589 63.1976 32.0033 63.1976 35.0173V41.9768C63.1976 44.4199 61.5702 46.0485 59.1321 46.0485H57.9131V34.6928C57.9131 29.3619 61.5732 25.0889 68.0407 25.0889C74.5082 25.0889 78.2073 29.3619 78.2073 34.6928V46.0485H76.9883C74.5472 46.0485 72.9228 44.4199 72.9228 41.9768V35.0173H72.9168Z" fill="#2C2C2C"/>
<path d="M81.8644 46.0479V19.5922C81.8644 17.3444 83.6839 15.5234 85.9299 15.5234H87.1489V32.6999L95.2828 25.6983H101.546L92.9258 33.1055L93.3311 32.8201L101.546 46.0479H99.5524C97.1113 46.0479 94.5922 44.7047 93.2891 42.6283L89.2206 36.2788L87.1459 38.0697V40.7562C87.1459 43.677 84.7799 46.0479 81.8584 46.0479H81.8644Z" fill="#2C2C2C"/>
<path d="M106.224 16.335C108.176 16.335 109.479 17.6361 109.479 19.5923C109.479 21.5486 108.179 22.8467 106.224 22.8467C104.27 22.8467 102.973 21.5456 102.973 19.5923C102.973 17.6391 104.234 16.335 106.224 16.335ZM108.867 46.0481H103.579V25.6954H104.798C107.239 25.6954 108.864 27.3241 108.864 29.7642V46.0451L108.867 46.0481Z" fill="#2C2C2C"/>
<path d="M120.904 25.0859C124.035 25.0859 126.311 25.9003 127.695 27.9767V25.6989H132.983V45.072C132.983 51.3794 129.323 55.0034 123.468 55.0034H113.505C113.505 52.5604 115.253 50.9347 117.856 50.9347H121.558C125.504 50.9347 127.698 47.9628 127.698 44.0954V42.7522C126.275 44.9909 123.915 45.8443 120.865 45.8443C115.904 45.8443 111.674 41.6523 111.674 35.426C111.674 29.1997 115.904 25.0889 120.907 25.0889L120.904 25.0859ZM122.45 41.5682C125.582 41.5682 127.695 39.0861 127.695 35.4621C127.695 31.8381 125.582 29.356 122.45 29.356C119.318 29.356 117.162 31.8381 117.162 35.4621C117.162 39.0861 119.318 41.5682 122.45 41.5682V41.5682Z" fill="#2C2C2C"/>
<path d="M146.566 25.0859C153.034 25.0859 157.342 29.359 157.342 35.8317C157.342 42.3044 153.031 46.6586 146.566 46.6586C140.102 46.6586 135.79 42.3044 135.79 35.8317C135.79 29.359 140.102 25.0859 146.566 25.0859V25.0859ZM146.566 42.3826C149.698 42.3826 151.854 39.7382 151.854 35.8708C151.854 32.0034 149.698 29.359 146.566 29.359C143.435 29.359 141.279 32.0034 141.279 35.8708C141.279 39.7382 143.435 42.3826 146.566 42.3826Z" fill="#2C2C2C"/>
<path d="M111.743 23.1473C111.743 10.3641 122.099 0 134.872 0C147.645 0 158 10.3641 158 23.1473" fill="#FFD05C"/>
</g>
<defs>
<clipPath id="clip0_1257_3334">
<rect width="158" height="55" fill="white"/>
</clipPath>
</defs>
</svg>
