<svg width="138" height="48" fill="none" xmlns="http://www.w3.org/2000/svg"><g clip-path="url(#clip0_1_834)"><path d="M22.148 29.388c0-1.455-.96-3.766-3.265-3.766-2.306 0-3.195 1.634-3.195 3.268v11.295a4.617 4.617 0 01-4.614-4.618V28.89c0-1.634-.96-3.268-3.265-3.268-2.306 0-3.194 2.308-3.194 3.766v7.246a3.549 3.549 0 01-3.549 3.551H0V29.103c0-3.837 2.84-7.212 7.809-7.212 2.342 0 4.258.744 5.57 1.917 1.314-1.173 3.158-1.917 5.501-1.917 5.039 0 7.88 3.375 7.88 7.212v11.082h-1.064a3.549 3.549 0 01-3.548-3.55v-7.247zm16.503-7.495c5.644 0 9.405 3.729 9.405 9.378s-3.763 9.449-9.405 9.449c-5.642 0-9.405-3.8-9.405-9.45 0-5.648 3.763-9.377 9.405-9.377zm0 15.095c2.733 0 4.614-2.308 4.614-5.683s-1.88-5.683-4.614-5.683c-2.733 0-4.615 2.308-4.615 5.683s1.882 5.683 4.615 5.683zm24.985-6.428c0-2.627-1.205-4.938-4.258-4.938-3.052 0-4.224 2.308-4.224 4.938v6.074c0 2.132-1.42 3.554-3.548 3.554h-1.064v-9.91c0-4.653 3.195-8.383 8.839-8.383s8.873 3.73 8.873 8.382v9.91H67.19c-2.13 0-3.548-1.42-3.548-3.553V30.56h-.006zm7.809 9.627V17.1a3.549 3.549 0 013.548-3.551h1.064v14.99l7.099-6.11h5.466L81.1 28.892l.354-.249 7.17 11.544h-1.74c-2.131 0-4.33-1.172-5.467-2.984l-3.55-5.541-1.811 1.563v2.344a4.617 4.617 0 01-4.615 4.618h.005zm21.26-25.931c1.703 0 2.84 1.135 2.84 2.843 0 1.707-1.134 2.84-2.84 2.84s-2.838-1.136-2.838-2.84c0-1.705 1.1-2.843 2.838-2.843zm2.306 25.931h-4.615V22.425h1.064c2.13 0 3.548 1.421 3.548 3.55v14.21l.003.002zm10.505-18.294c2.733 0 4.719.71 5.927 2.522v-1.987h4.615v16.907c0 5.505-3.195 8.667-8.304 8.667h-8.695c0-2.132 1.525-3.55 3.797-3.55h3.231c3.443 0 5.359-2.594 5.359-5.97V37.31c-1.242 1.954-3.302 2.699-5.964 2.699-4.329 0-8.021-3.659-8.021-9.092 0-5.434 3.692-9.022 8.057-9.022l-.002-.002zm1.349 14.384c2.733 0 4.578-2.166 4.578-5.329s-1.845-5.329-4.578-5.329c-2.733 0-4.614 2.166-4.614 5.33 0 3.162 1.881 5.328 4.614 5.328zm21.047-14.384c5.645 0 9.405 3.729 9.405 9.378s-3.763 9.449-9.405 9.449c-5.641 0-9.404-3.8-9.404-9.45 0-5.648 3.763-9.377 9.404-9.377zm0 15.095c2.734 0 4.615-2.308 4.615-5.683s-1.881-5.683-4.615-5.683c-2.733 0-4.614 2.308-4.614 5.683s1.881 5.683 4.614 5.683z" fill="#101010"/><path d="M97.521 20.201C97.521 9.045 106.559 0 117.706 0c11.147 0 20.185 9.045 20.185 20.201" fill="#FFD05C"/></g><defs><clipPath id="clip0_1_834"><path fill="#fff" d="M0 0h137.891v48H0z"/></clipPath></defs></svg>