<svg width="9" height="8" viewBox="0 0 9 8" fill="none" xmlns="http://www.w3.org/2000/svg">
<path d="M1.57536 3.51871C1.30966 3.20095 0.836666 3.15874 0.518901 3.42445C0.201136 3.69015 0.158932 4.16314 0.424636 4.48091L1.57536 3.51871ZM3.34665 6.80626L2.77129 7.28736C2.9212 7.46664 3.14611 7.5658 3.37958 7.55554C3.61305 7.54528 3.8284 7.42678 3.962 7.23504L3.34665 6.80626ZM7.87309 1.62214C8.1099 1.28229 8.02637 0.814819 7.68652 0.578013C7.34668 0.341207 6.87921 0.424737 6.6424 0.764584L7.87309 1.62214ZM0.424636 4.48091L2.77129 7.28736L3.92202 6.32516L1.57536 3.51871L0.424636 4.48091ZM3.962 7.23504L7.87309 1.62214L6.6424 0.764584L2.73131 6.37749L3.962 7.23504Z" fill="#2C2C2C"/>
</svg>
