<svg width="9" height="6" viewBox="0 0 9 6" fill="none" xmlns="http://www.w3.org/2000/svg">
<path d="M6.88471 0.182755C7.02558 0.0693055 7.21303 0.00658578 7.40753 0.00783068C7.60202 0.00907559 7.78833 0.0741879 7.92716 0.189428C8.06598 0.304668 8.14645 0.461022 8.15159 0.625498C8.15673 0.789975 8.08614 0.949708 7.95471 1.07099L3.96471 5.29223C3.8961 5.35475 3.81329 5.40491 3.72124 5.43974C3.62919 5.47456 3.52978 5.49332 3.42896 5.4949C3.32814 5.49648 3.22798 5.48084 3.13447 5.44893C3.04095 5.41701 2.95601 5.36947 2.88471 5.30915L0.238708 3.07079C0.165022 3.01271 0.105919 2.94267 0.0649275 2.86484C0.0239355 2.78701 0.0018935 2.703 0.00011672 2.61781C-0.00166006 2.53262 0.0168648 2.44801 0.0545858 2.369C0.0923068 2.29 0.148451 2.21824 0.21967 2.15799C0.290889 2.09775 0.375723 2.05025 0.469111 2.01834C0.562499 1.98643 0.662528 1.97076 0.763231 1.97226C0.863934 1.97377 0.963247 1.99241 1.05525 2.02709C1.14725 2.06177 1.23005 2.11176 1.29871 2.1741L3.39271 3.94465L6.86571 0.201366C6.87196 0.194853 6.87764 0.18864 6.88471 0.182755Z" fill="#2F80ED"/>
</svg>
