<svg width="9" height="6" viewBox="0 0 9 6" fill="none" xmlns="http://www.w3.org/2000/svg">
<path d="M6.88471 0.530412C7.02558 0.416962 7.21303 0.354242 7.40753 0.355487C7.60202 0.356732 7.78833 0.421844 7.92716 0.537084C8.06598 0.652324 8.14645 0.808679 8.15159 0.973155C8.15673 1.13763 8.08614 1.29736 7.95471 1.41865L3.96471 5.63989C3.8961 5.7024 3.81329 5.75257 3.72124 5.78739C3.62919 5.82222 3.52978 5.84098 3.42896 5.84256C3.32814 5.84414 3.22798 5.8285 3.13447 5.79659C3.04095 5.76467 2.95601 5.71713 2.88471 5.65681L0.238708 3.41845C0.165022 3.36037 0.105919 3.29032 0.0649275 3.2125C0.0239355 3.13467 0.0018935 3.05066 0.00011672 2.96547C-0.00166006 2.88028 0.0168648 2.79566 0.0545858 2.71666C0.0923068 2.63766 0.148451 2.5659 0.21967 2.50565C0.290889 2.4454 0.375723 2.39791 0.469111 2.366C0.562499 2.33409 0.662528 2.31842 0.763231 2.31992C0.863934 2.32142 0.963247 2.34007 1.05525 2.37475C1.14725 2.40942 1.23005 2.45942 1.29871 2.52175L3.39271 4.29231L6.86571 0.549023C6.87196 0.54251 6.87864 0.536296 6.88571 0.530412H6.88471Z" fill="#B1B1B1"/>
</svg>
