<svg width="14" height="13" viewBox="0 0 14 13" fill="none" xmlns="http://www.w3.org/2000/svg">
<path d="M4.95355 6.44645C4.75829 6.25118 4.44171 6.25118 4.24645 6.44645C4.05118 6.64171 4.05118 6.95829 4.24645 7.15355L4.95355 6.44645ZM6.4 8.6L6.04645 8.95355C6.14578 9.05289 6.28232 9.10585 6.42266 9.09949C6.56299 9.09312 6.69418 9.02801 6.78411 8.92009L6.4 8.6ZM9.78411 5.32009C9.96089 5.10795 9.93223 4.79267 9.72009 4.61589C9.50795 4.43911 9.19267 4.46777 9.01589 4.67991L9.78411 5.32009ZM4.24645 7.15355L6.04645 8.95355L6.75355 8.24645L4.95355 6.44645L4.24645 7.15355ZM6.78411 8.92009L9.78411 5.32009L9.01589 4.67991L6.01589 8.27991L6.78411 8.92009ZM12.5 6.5C12.5 9.53757 10.0376 12 7 12V13C10.5899 13 13.5 10.0899 13.5 6.5H12.5ZM7 12C3.96243 12 1.5 9.53757 1.5 6.5H0.5C0.5 10.0899 3.41015 13 7 13V12ZM1.5 6.5C1.5 3.46243 3.96243 1 7 1V0C3.41015 0 0.5 2.91015 0.5 6.5H1.5ZM7 1C10.0376 1 12.5 3.46243 12.5 6.5H13.5C13.5 2.91015 10.5899 0 7 0V1Z" fill="#2F80ED"/>
</svg>
